<?xml version="1.0" standalone="no"?>
<!DOCTYPE svg PUBLIC "-//W3C//DTD SVG 1.1//EN" "http://www.w3.org/Graphics/SVG/1.1/DTD/svg11.dtd" >
<svg xmlns="http://www.w3.org/2000/svg">
<metadata>Generated by IcoMoon</metadata>
<defs>
<font id="indra-gis" horiz-adv-x="1024">
<font-face units-per-em="1024" ascent="960" descent="-64" />
<missing-glyph horiz-adv-x="1024" />
<glyph unicode="&#x20;" horiz-adv-x="512" d="" />
<glyph unicode="&#xe900;" glyph-name="bin" d="M213.333 106.667c0-47.061 38.272-85.333 85.333-85.333h426.667c47.061 0 85.333 38.272 85.333 85.333v512h-597.333v-512zM298.667 533.333h426.667l0.043-426.667h-426.709v426.667zM640 746.667v85.333h-256v-85.333h-256v-85.333h768v85.333zM384 448h85.333v-256h-85.333v256zM554.667 448h85.333v-256h-85.333v256z" />
<glyph unicode="&#xe901;" glyph-name="arrow-left" d="M189.747 396.8l237.722-237.978c4.806-4.659 7.788-11.175 7.788-18.388 0-14.138-11.462-25.6-25.6-25.6-7.238 0-13.774 3.004-18.43 7.833l-0.007 0.008-281.344 281.6c-4.656 4.621-7.538 11.024-7.538 18.099s2.882 13.478 7.536 18.098l281.346 281.602c4.664 4.837 11.2 7.84 18.438 7.84 14.138 0 25.6-11.462 25.6-25.6 0-7.212-2.983-13.728-7.782-18.381l-0.007-0.006-237.722-237.926h706.253c14.138 0 25.6-11.462 25.6-25.6s-11.462-25.6-25.6-25.6v0h-706.253z" />
<glyph unicode="&#xe902;" glyph-name="arrow-right" d="M834.253 396.8h-706.253c-14.138 0-25.6 11.462-25.6 25.6s11.462 25.6 25.6 25.6v0h706.253l-237.773 237.926c-4.628 4.634-7.489 11.032-7.489 18.099 0 14.146 11.468 25.614 25.614 25.614 7.080 0 13.488-2.872 18.125-7.515l281.344-281.6c4.656-4.621 7.538-11.024 7.538-18.099s-2.882-13.478-7.536-18.098l-0.002-0.002-281.344-281.651c-4.664-4.837-11.2-7.84-18.438-7.84-14.138 0-25.6 11.462-25.6 25.6 0 7.212 2.983 13.728 7.782 18.381l0.007 0.006 237.773 237.978z" />
<glyph unicode="&#xe903;" glyph-name="art-tools" d="M268.544 586.752l87.91-87.962 104.755 104.755-181.658 181.658-104.755-104.755 57.549-57.549 62.976 62.976c4.662 4.822 11.188 7.815 18.414 7.815 14.138 0 25.6-11.462 25.6-25.6 0-7.226-2.994-13.752-7.808-18.407l-62.983-62.983zM488.704 558.592l-335.104-334.848-0.256-134.554 134.656 0.41 426.496 426.906-133.939 133.939-91.904-91.853zM319.846 462.95l-217.446 217.498 177.152 177.152 217.498-217.498 174.643 174.592c26.229 25.047 61.843 40.461 101.057 40.461 80.872 0 146.432-65.56 146.432-146.432 0-39.202-15.404-74.805-40.49-101.088l0.054 0.057-174.643-174.592 217.6-217.6-177.152-177.203-217.6 217.6-217.549-217.498h-207.002v207.002l217.498 217.549zM616.704 686.643l133.888-133.888 91.494 91.546c17.126 17.126 27.719 40.785 27.719 66.918 0 52.267-42.37 94.637-94.637 94.637-26.133 0-49.792-10.593-66.918-27.719l-91.494-91.546zM667.853 396.851l-104.755-104.755 57.293-57.293 62.976 62.976c4.599 4.446 10.872 7.186 17.785 7.186 14.138 0 25.6-11.462 25.6-25.6 0-6.913-2.74-13.186-7.193-17.792l-62.969-62.969 87.91-87.91 104.755 104.755-181.402 181.402z" />
<glyph unicode="&#xe904;" glyph-name="chart-bar" d="M128 38.4h768c14.138 0 25.6-11.462 25.6-25.6s-11.462-25.6-25.6-25.6v0h-768c-14.138 0-25.6 11.462-25.6 25.6s11.462 25.6 25.6 25.6v0zM204.8 396.8c28.277 0 51.2-22.923 51.2-51.2v0-204.8c0-28.277-22.923-51.2-51.2-51.2s-51.2 22.923-51.2 51.2v0 204.8c0 28.277 22.923 51.2 51.2 51.2v0zM409.6 499.2c28.277 0 51.2-22.923 51.2-51.2v0-307.2c0-28.277-22.923-51.2-51.2-51.2s-51.2 22.923-51.2 51.2v0 307.2c0 28.277 22.923 51.2 51.2 51.2v0zM614.4 704c28.277 0 51.2-22.923 51.2-51.2v0-512c0-28.277-22.923-51.2-51.2-51.2s-51.2 22.923-51.2 51.2v0 512c0 28.277 22.923 51.2 51.2 51.2v0zM819.2 908.8c28.277 0 51.2-22.923 51.2-51.2v0-716.8c0-28.277-22.923-51.2-51.2-51.2s-51.2 22.923-51.2 51.2v0 716.8c0 28.277 22.923 51.2 51.2 51.2v0z" />
<glyph unicode="&#xe905;" glyph-name="checkmark-2" d="M449.69 110.95l375.654 517.069c4.709 6.425 12.228 10.55 20.71 10.55 14.14 0 25.603-11.463 25.603-25.603 0-5.658-1.835-10.887-4.943-15.124l0.050 0.072-391.168-538.368c-4.704-6.479-12.254-10.643-20.776-10.643-6.024 0-11.562 2.081-15.935 5.563l0.052-0.040-282.266 220.518c-6.011 4.73-9.836 12.005-9.836 20.173 0 14.141 11.464 25.605 25.605 25.605 5.973 0 11.469-2.045 15.824-5.474l-0.055 0.042 261.53-204.288z" />
<glyph unicode="&#xe906;" glyph-name="copy" d="M716.8 704h124.723c45.67 0 62.208-4.762 78.848-13.67 16.742-8.909 29.85-22.016 38.758-38.707s13.67-33.28 13.67-78.848v-505.498c0-45.67-4.762-62.208-13.67-78.848-8.909-16.742-22.016-29.85-38.707-38.758s-33.28-13.67-78.848-13.67h-351.949c-45.67 0-62.208 4.762-78.848 13.67-16.593 8.886-29.852 22.128-38.515 38.212l-0.244 0.495c-8.909 16.691-13.67 33.28-13.67 78.848v124.774h-124.672c-45.67 0-62.208 4.762-78.848 13.67-16.593 8.886-29.852 22.128-38.515 38.212l-0.244 0.495c-8.909 16.691-13.67 33.28-13.67 78.848v505.549c0 45.67 4.762 62.208 13.67 78.848 8.909 16.742 22.016 29.85 38.707 38.758 16.742 8.858 33.28 13.619 78.848 13.619h351.898c45.67 0 62.208-4.762 78.848-13.67 16.742-8.909 29.85-22.016 38.758-38.707s13.67-33.28 13.67-78.848v-124.774zM665.6 704v124.723c0 33.894-1.997 44.237-7.629 54.784-4.042 7.59-10.111 13.642-17.488 17.554l-0.227 0.11c-10.496 5.632-20.838 7.629-54.733 7.629h-351.846c-33.894 0-44.237-1.997-54.784-7.629-7.59-4.042-13.642-10.111-17.554-17.488l-0.11-0.227c-5.632-10.496-7.629-20.838-7.629-54.733v-505.446c0-33.894 1.997-44.237 7.629-54.784 4.042-7.59 10.111-13.642 17.488-17.554l0.227-0.11c10.496-5.632 20.838-7.629 54.733-7.629h124.723v329.523c0 45.67 4.762 62.208 13.67 78.848 8.909 16.742 22.016 29.85 38.707 38.758s33.28 13.67 78.848 13.67h175.974zM489.677 652.8c-33.894 0-44.237-1.997-54.784-7.629-7.59-4.042-13.642-10.111-17.554-17.488l-0.11-0.227c-5.632-10.496-7.629-20.838-7.629-54.733v-505.446c0-33.894 1.997-44.237 7.629-54.784 4.042-7.59 10.111-13.642 17.488-17.554l0.227-0.11c10.496-5.632 20.838-7.629 54.733-7.629h351.846c33.894 0 44.237 1.997 54.784 7.629 7.59 4.042 13.642 10.111 17.554 17.488l0.11 0.227c5.632 10.496 7.629 20.838 7.629 54.733v505.446c0 33.894-1.997 44.237-7.629 54.784-4.042 7.59-10.111 13.642-17.488 17.554l-0.227 0.11c-10.496 5.632-20.838 7.629-54.733 7.629h-351.846z" />
<glyph unicode="&#xe907;" glyph-name="dashboard" d="M460.8 448h-409.6v-51.2h409.6v-409.6h51.2v460.8h460.8v51.2h-460.8v409.6h-51.2v-460.8zM131.277 960h761.446c45.67 0 62.208-4.762 78.848-13.67 16.742-8.909 29.85-22.016 38.758-38.707s13.67-33.28 13.67-78.848v-761.498c0-45.67-4.762-62.208-13.67-78.848-8.909-16.742-22.016-29.85-38.707-38.758s-33.28-13.67-78.848-13.67h-761.549c-45.67 0-62.208 4.762-78.848 13.67-16.593 8.886-29.852 22.128-38.515 38.212l-0.244 0.495c-8.858 16.742-13.619 33.28-13.619 78.848v761.549c0 45.67 4.762 62.208 13.67 78.848 8.909 16.742 22.016 29.85 38.707 38.758 16.742 8.858 33.28 13.619 78.848 13.619zM131.277 908.8c-33.894 0-44.237-1.997-54.784-7.629-7.59-4.042-13.642-10.111-17.554-17.488l-0.11-0.227c-5.632-10.496-7.629-20.838-7.629-54.733v-761.446c0-33.894 1.997-44.237 7.629-54.784 4.042-7.59 10.111-13.642 17.488-17.554l0.227-0.11c10.496-5.632 20.838-7.629 54.733-7.629h761.446c33.894 0 44.237 1.997 54.784 7.629 7.59 4.042 13.642 10.111 17.554 17.488l0.11 0.227c5.632 10.496 7.629 20.838 7.629 54.733v761.446c0 33.894-1.997 44.237-7.629 54.784-4.042 7.59-10.111 13.642-17.488 17.554l-0.227 0.11c-10.496 5.632-20.838 7.629-54.733 7.629h-761.446z" />
<glyph unicode="&#xe908;" glyph-name="double-left" d="M453.325 660.275l-186.726-186.675 186.726-186.778c4.628-4.634 7.489-11.032 7.489-18.099 0-14.146-11.468-25.614-25.614-25.614-7.080 0-13.488 2.872-18.125 7.515v0l-204.8 204.851c-4.631 4.632-7.495 11.031-7.495 18.099s2.864 13.467 7.495 18.099l204.8 204.8c4.637 4.643 11.045 7.515 18.125 7.515 14.146 0 25.614-11.468 25.614-25.614 0-7.067-2.862-13.465-7.49-18.099v0zM760.525 660.275l-186.726-186.675 186.726-186.778c4.628-4.634 7.489-11.032 7.489-18.099 0-14.146-11.468-25.614-25.614-25.614-7.080 0-13.488 2.872-18.125 7.515v0l-204.8 204.851c-4.631 4.632-7.495 11.031-7.495 18.099s2.864 13.467 7.495 18.099l204.8 204.8c4.637 4.643 11.045 7.515 18.125 7.515 14.146 0 25.614-11.468 25.614-25.614 0-7.067-2.862-13.465-7.49-18.099v0z" />
<glyph unicode="&#xe909;" glyph-name="drag" d="M332.8 806.4h358.4c14.138 0 25.6-11.462 25.6-25.6s-11.462-25.6-25.6-25.6v0h-358.4c-14.138 0-25.6 11.462-25.6 25.6s11.462 25.6 25.6 25.6v0zM332.8 499.2h358.4c14.138 0 25.6-11.462 25.6-25.6s-11.462-25.6-25.6-25.6v0h-358.4c-14.138 0-25.6 11.462-25.6 25.6s11.462 25.6 25.6 25.6v0zM332.8 192h358.4c14.138 0 25.6-11.462 25.6-25.6s-11.462-25.6-25.6-25.6v0h-358.4c-14.138 0-25.6 11.462-25.6 25.6s11.462 25.6 25.6 25.6v0z" />
<glyph unicode="&#xe90a;" horiz-adv-x="2345" d="M2173.16 25.519c-7.117 0-13.153 3.874-13.153 10.45v0.216c0 6.576 5.441 10.829 15.297 10.829 6.378 0 11.549-1.117 15.423-2.216v-5.063c0-8.342-7.928-14.216-17.567-14.216v0zM2171.646 19.321c9.225 0 15.315 4.306 18.973 9.045v-4.739c0-2.054 1.513-3.676 3.766-3.676 2.108 0 3.73 1.622 3.73 3.838v28.72c0 6.685-1.838 11.747-5.387 15.315-3.838 3.838-9.531 5.766-16.937 5.766-6.685 0-11.964-1.297-17.135-3.549-1.009-0.396-2.108-1.622-2.108-3.243 0-1.838 1.622-3.351 3.459-3.351 0.378 0 0.865 0.108 1.405 0.324 3.856 1.73 8.306 2.919 13.585 2.919 9.802 0 15.621-4.847 15.621-14.288v-1.82c-4.685 1.297-9.441 2.216-16.126 2.216-13.297 0-22.414-5.892-22.414-16.937v-0.216c0-10.72 9.82-16.324 19.567-16.324v0zM2105.558 81.302c1.189 2.522 2.324 3.549 4.649 3.549 3.441 0 9.009-4.054 13.585-4.054 4.36 0 6.901 2.324 8.901 8.198 0.144 0.504 0.306 1.243 0.306 1.622 0 1.351-1.189 2.432-2.631 2.432-1.135 0-1.892-0.919-2.324-1.73-1.225-2.522-2.36-3.549-4.685-3.549-3.441 0-9.009 4.090-13.585 4.090-4.36 0-6.847-2.36-8.901-8.234-0.108-0.396-0.306-1.207-0.306-1.622 0-1.297 1.225-2.432 2.631-2.432 1.243 0 1.946 0.919 2.36 1.73v0zM2093.594 23.898c0-2.216 1.694-3.946 3.946-3.946 2.216 0 3.838 1.73 3.838 3.946v26.576c0 9.856 6.685 16.432 15.729 16.432 9.207 0 14.486-6.090 14.486-15.837v-27.171c0-2.216 1.73-3.946 3.946-3.946 2.144 0 3.874 1.73 3.874 3.946v29.098c0 12.504-7.423 21.009-20.090 21.009-9.009 0-14.504-4.54-17.946-10.234v5.694c0 2.198-1.73 3.91-3.946 3.91-2.144 0-3.838-1.82-3.838-3.91v-45.567zM2051.991 25.519c-7.099 0-13.189 3.874-13.189 10.45v0.216c0 6.576 5.495 10.829 15.315 10.829 6.396 0 11.567-1.117 15.441-2.216v-5.063c0-8.342-7.91-14.216-17.567-14.216v0zM2050.442 19.321c9.261 0 15.351 4.306 19.009 9.045v-4.739c0-2.054 1.513-3.676 3.73-3.676 2.108 0 3.766 1.622 3.766 3.838v28.72c0 6.685-1.82 11.747-5.387 15.315-3.874 3.838-9.531 5.766-16.919 5.766-6.685 0-11.964-1.297-17.135-3.549-1.027-0.396-2.144-1.622-2.144-3.243 0-1.838 1.604-3.351 3.441-3.351 0.414 0 0.919 0.108 1.441 0.324 3.838 1.73 8.306 2.919 13.585 2.919 9.82 0 15.621-4.847 15.621-14.288v-1.82c-4.685 1.297-9.423 2.216-16.144 2.216-13.279 0-22.414-5.892-22.414-16.937v-0.216c0-10.72 9.838-16.324 19.549-16.324v0zM1994.011 26.33c-9.748 0-18.973 8.126-18.973 20.306v0.18c0 11.964 9.225 20.198 18.973 20.198 9.91 0 18.432-7.928 18.432-20.27v-0.216c0-12.666-8.306-20.198-18.432-20.198v0zM1967.543 7.682c0-2.216 1.73-3.946 3.946-3.946 2.252 0 3.856 1.73 3.856 3.946v22.792c4.054-5.874 10.324-11.153 20.072-11.153 12.666 0 25.044 10.18 25.044 27.315v0.18c0 17.243-12.45 27.189-25.044 27.189-9.639 0-15.801-5.369-20.072-11.675v7.135c0 2.198-1.712 3.91-3.964 3.91-2.108 0-3.838-1.712-3.838-3.91v-61.782zM1934.391 19.429c10.45 0 18.648 5.802 18.648 15.729v0.216c0 9.423-8.721 12.558-16.81 14.991-7.009 2.144-13.513 4.072-13.513 9.045v0.18c0 4.36 3.928 7.621 10.162 7.621 4.432 0 9.225-1.513 13.657-4.072 0.414-0.18 1.027-0.396 1.73-0.396 1.928 0 3.441 1.513 3.441 3.351 0 1.513-0.883 2.631-1.892 3.243-5.117 2.739-11.171 4.468-16.756 4.468-10.342 0-17.837-5.982-17.837-15.027v-0.18c0-9.639 9.099-12.486 17.333-14.81 6.865-1.946 13.099-3.946 13.099-9.225v-0.216c0-5.063-4.576-8.306-10.865-8.306-5.676 0-11.243 1.946-16.612 5.567-0.541 0.414-1.243 0.595-1.946 0.595-1.928 0-3.441-1.513-3.441-3.315 0-1.333 0.703-2.342 1.405-2.847 5.658-4.036 13.297-6.612 20.198-6.612v0zM1854.375 20.456h44.612c2.036 0 3.658 1.622 3.658 3.658s-1.622 3.658-3.658 3.658h-40.576v24.846h35.513c2 0 3.658 1.622 3.658 3.622 0 1.928-1.658 3.658-3.658 3.658h-35.513v24.252h40.089c2.036 0 3.658 1.622 3.658 3.622 0 2.036-1.622 3.658-3.658 3.658h-44.125c-2.126 0-3.946-1.82-3.946-4.036v-62.863c0-2.252 1.82-4.072 3.946-4.072v0zM1777.133 25.519c-7.117 0-13.207 3.874-13.207 10.45v0.216c0 6.576 5.495 10.829 15.315 10.829 6.36 0 11.531-1.117 15.405-2.216v-5.063c0-8.342-7.91-14.216-17.513-14.216v0zM1775.62 19.321c9.207 0 15.297 4.306 18.918 9.045v-4.739c0-2.054 1.513-3.676 3.766-3.676 2.108 0 3.73 1.622 3.73 3.838v28.72c0 6.685-1.784 11.747-5.351 15.315-3.856 3.838-9.531 5.766-16.919 5.766-6.685 0-11.964-1.297-17.135-3.549-1.027-0.396-2.144-1.622-2.144-3.243 0-1.838 1.622-3.351 3.441-3.351 0.432 0 0.919 0.108 1.405 0.324 3.874 1.73 8.342 2.919 13.621 2.919 9.82 0 15.585-4.847 15.585-14.288v-1.82c-4.631 1.297-9.423 2.216-16.108 2.216-13.279 0-22.414-5.892-22.414-16.937v-0.216c0-10.72 9.856-16.324 19.603-16.324v0zM1721.459 23.898c0-2.216 1.676-3.946 3.928-3.946 2.216 0 3.874 1.838 3.874 3.946v17.837c0 15.135 8.306 22.738 18.45 23.963 2.036 0.288 3.441 1.802 3.441 3.946 0 2.216-1.513 3.946-3.874 3.946-6.54 0-14.18-5.279-18.018-14v9.874c0 2.198-1.712 3.91-3.964 3.91-2.162 0-3.838-1.82-3.838-3.91v-45.567zM1679.892 25.519c-7.099 0-13.189 3.874-13.189 10.45v0.216c0 6.576 5.441 10.829 15.297 10.829 6.378 0 11.549-1.117 15.423-2.216v-5.063c0-8.342-7.928-14.216-17.531-14.216v0zM1678.379 19.321c9.225 0 15.279 4.306 18.936 9.045v-4.739c0-2.054 1.513-3.676 3.766-3.676 2.108 0 3.73 1.622 3.73 3.838v28.72c0 6.685-1.838 11.747-5.351 15.315-3.874 3.838-9.531 5.766-16.955 5.766-6.703 0-11.964-1.297-17.153-3.549-0.973-0.396-2.108-1.622-2.108-3.243 0-1.838 1.622-3.351 3.459-3.351 0.414 0 0.865 0.108 1.405 0.324 3.874 1.73 8.306 2.919 13.585 2.919 9.856 0 15.621-4.847 15.621-14.288v-1.82c-4.649 1.297-9.441 2.216-16.126 2.216-13.261 0-22.414-5.892-22.414-16.937v-0.216c0-10.72 9.856-16.324 19.603-16.324v0zM1621.857 26.33c-9.748 0-18.955 8.126-18.955 20.306v0.18c0 11.964 9.207 20.198 18.955 20.198 9.964 0 18.486-7.928 18.486-20.27v-0.216c0-12.666-8.306-20.198-18.486-20.198v0zM1595.408 7.682c0-2.216 1.712-3.946 3.928-3.946 2.252 0 3.874 1.73 3.874 3.946v22.792c4.054-5.874 10.342-11.153 20.054-11.153 12.72 0 25.099 10.18 25.099 27.315v0.18c0 17.243-12.486 27.189-25.099 27.189-9.603 0-15.783-5.369-20.054-11.675v7.135c0 2.198-1.73 3.91-3.982 3.91-2.108 0-3.82-1.712-3.82-3.91v-61.782zM1539.031 23.898c0-2.216 1.712-3.946 3.964-3.946 2.216 0 3.838 1.73 3.838 3.946v67.152c0 2.108-1.712 3.928-3.928 3.928-2.162 0-3.874-1.82-3.874-3.928v-67.152zM1496.761 25.519c-7.117 0-13.189 3.874-13.189 10.45v0.216c0 6.576 5.477 10.829 15.333 10.829 6.378 0 11.549-1.117 15.387-2.216v-5.063c0-8.342-7.892-14.216-17.531-14.216v0zM1495.248 19.321c9.225 0 15.315 4.306 18.936 9.045v-4.739c0-2.054 1.55-3.676 3.766-3.676 2.144 0 3.766 1.622 3.766 3.838v28.72c0 6.685-1.838 11.747-5.387 15.315-3.838 3.838-9.531 5.766-16.937 5.766-6.721 0-11.964-1.297-17.135-3.549-1.009-0.396-2.144-1.622-2.144-3.243 0-1.838 1.622-3.351 3.459-3.351 0.414 0 0.901 0.108 1.441 0.324 3.838 1.73 8.306 2.919 13.585 2.919 9.802 0 15.585-4.847 15.585-14.288v-1.82c-4.649 1.297-9.441 2.216-16.126 2.216-13.261 0-22.378-5.892-22.378-16.937v-0.216c0-10.72 9.82-16.324 19.567-16.324v0zM1456.222 19.537c3.027 0 5.459 0.523 7.675 1.441 1.333 0.486 2.252 1.622 2.252 3.027 0 1.838-1.55 3.351-3.387 3.351-0.559 0-2-0.721-4.739-0.721-5.279 0-8.847 2.324-8.847 8.739v30.612h13.585c1.946 0 3.567 1.513 3.567 3.477 0 1.802-1.622 3.423-3.567 3.423h-13.585v12.342c0 2.162-1.784 3.982-3.928 3.982-2.216 0-3.838-1.82-3.838-3.982v-12.342h-4.306c-1.784 0-3.405-1.513-3.405-3.423 0-1.856 1.622-3.477 3.405-3.477h4.306v-31.639c0-10.666 6.36-14.81 14.81-14.81v0zM1412.691 23.898c0-2.216 1.73-3.946 3.946-3.946 2.252 0 3.874 1.73 3.874 3.946v45.567c0 2.198-1.73 3.91-3.946 3.91-2.144 0-3.874-1.82-3.874-3.91v-45.567zM1411.988 87.986c0-2.432 2-4.162 4.576-4.162 2.595 0 4.649 1.73 4.649 4.162v1.333c0 2.54-2.054 4.144-4.649 4.144-2.577 0-4.576-1.604-4.576-4.144v-1.333zM1367.791 31.393c-9.748 0-18.162 7.315-18.162 17.837v0.216c0 10.775 8.234 17.675 18.162 17.675s19.279-7.009 19.279-17.783v-0.18c0-10.54-9.351-17.765-19.279-17.765v0zM1367.899 4.024c8.306 0 15.261 2.342 19.982 6.991 4.216 4.27 6.685 10.45 6.685 18.558v39.891c0 2.090-1.766 3.91-3.982 3.91s-3.82-1.82-3.82-3.91v-6.018c-4.306 5.676-10.666 10.558-20.486 10.558-12.504 0-24.63-9.423-24.63-24.774v-0.162c0-15.135 12.036-24.54 24.63-24.54 9.603 0 16 4.973 20.54 11.027v-6.162c0-12.288-7.495-18.648-19.027-18.648-6.793 0-13.099 2-18.558 5.658-0.523 0.324-1.009 0.486-1.712 0.486-1.874 0-3.549-1.712-3.549-3.441 0-1.405 0.757-2.595 2-3.243 6.612-4.036 13.892-6.18 21.927-6.18v0zM1318.729 23.898c0-2.216 1.694-3.946 3.946-3.946 2.216 0 3.838 1.73 3.838 3.946v45.567c0 2.198-1.73 3.91-3.946 3.91-2.144 0-3.838-1.82-3.838-3.91v-45.567zM1317.991 87.986c0-2.432 2.036-4.162 4.576-4.162 2.631 0 4.649 1.73 4.649 4.162v1.333c0 2.54-2.018 4.144-4.649 4.144-2.54 0-4.576-1.604-4.576-4.144v-1.333zM1248.028 27.88v56.161h16.648c17.909 0 29.387-12.378 29.387-28.089v-0.198c0-15.729-11.477-27.873-29.387-27.873h-16.648zM1240.011 24.528c0-2.252 1.838-4.072 3.982-4.072h20.684c22.27 0 37.693 15.513 37.693 35.495v0.18c0 20-15.423 35.296-37.693 35.296h-20.684c-2.144 0-3.982-1.82-3.982-4.036v-62.863zM1166.715 25.519c-7.081 0-13.171 3.874-13.171 10.45v0.216c0 6.576 5.459 10.829 15.315 10.829 6.36 0 11.531-1.117 15.369-2.216v-5.063c0-8.342-7.874-14.216-17.513-14.216v0zM1165.201 19.321c9.207 0 15.297 4.306 18.918 9.045v-4.739c0-2.054 1.55-3.676 3.766-3.676 2.162 0 3.766 1.622 3.766 3.838v28.72c0 6.685-1.82 11.747-5.369 15.315-3.838 3.838-9.549 5.766-16.937 5.766-6.685 0-11.964-1.297-17.135-3.549-1.027-0.396-2.108-1.622-2.108-3.243 0-1.838 1.622-3.351 3.441-3.351 0.396 0 0.883 0.108 1.405 0.324 3.874 1.73 8.306 2.919 13.585 2.919 9.856 0 15.585-4.847 15.585-14.288v-1.82c-4.631 1.297-9.387 2.216-16.108 2.216-13.261 0-22.378-5.892-22.378-16.937v-0.216c0-10.72 9.82-16.324 19.567-16.324v0zM1105.689 67.014c9.711 0 18.936-8.126 18.936-20.198v-0.18c0-12.072-9.225-20.306-18.936-20.306-9.856 0-18.468 7.91-18.468 20.306v0.18c0 12.702 8.288 20.198 18.468 20.198v0zM1132.157 91.049c0 2.216-1.73 3.928-3.982 3.928-2.216 0-3.838-1.712-3.838-3.928v-28.198c-4.090 5.874-10.342 11.153-20.090 11.153-12.558 0-25.026-10.162-25.026-27.261v-0.216c0-17.243 12.468-27.207 25.026-27.207 9.639 0 15.837 5.387 20.090 11.693v-7.117c0-2.216 1.73-3.946 3.946-3.946 2.144 0 3.874 1.73 3.874 3.946v67.152zM1019.781 23.898c0-2.216 1.73-3.946 3.982-3.946 2.216 0 3.838 1.73 3.838 3.946v26.576c0 9.856 6.685 16.432 15.729 16.432 9.225 0 14.504-6.090 14.504-15.837v-27.171c0-2.216 1.676-3.946 3.928-3.946 2.126 0 3.838 1.73 3.838 3.946v29.098c0 12.504-7.387 21.009-20.054 21.009-9.009 0-14.504-4.54-17.946-10.234v5.694c0 2.198-1.73 3.91-3.982 3.91-2.108 0-3.838-1.82-3.838-3.91v-45.567zM1002.431 27.141c0.811 0.739 1.243 1.622 1.243 2.522 0 1.838-1.513 3.351-3.459 3.351-0.901 0-1.604-0.36-2.252-0.919-3.838-3.513-8.576-6.054-15.099-6.054-9.315 0-17.333 6.378-18.432 17.747h37.909c1.928 0 3.658 1.513 3.658 3.658 0 13.892-8.847 26.558-24.324 26.558-14.54 0-25.153-12.162-25.153-27.261v-0.216c0-16.216 11.747-27.279 26.144-27.279 8.937 0 14.81 3.135 19.765 7.892v0zM964.431 49.555c1.027 10.234 7.928 17.837 17.027 17.837 10.414 0 15.946-8.306 16.756-17.837h-33.783zM915.55 31.393c-9.711 0-18.162 7.315-18.162 17.837v0.216c0 10.775 8.234 17.675 18.162 17.675s19.279-7.009 19.279-17.783v-0.18c0-10.54-9.351-17.765-19.279-17.765v0zM915.658 4.024c8.306 0 15.315 2.342 19.945 6.991 4.27 4.27 6.721 10.45 6.721 18.558v39.891c0 2.090-1.712 3.91-3.964 3.91-2.216 0-3.838-1.82-3.838-3.91v-6.018c-4.252 5.676-10.666 10.558-20.486 10.558-12.486 0-24.63-9.423-24.63-24.774v-0.162c0-15.135 12.072-24.54 24.63-24.54 9.603 0 16.018 4.973 20.594 11.027v-6.162c0-12.288-7.531-18.648-19.081-18.648-6.793 0-13.081 2-18.54 5.658-0.523 0.324-1.027 0.486-1.73 0.486-1.82 0-3.549-1.712-3.549-3.441 0-1.405 0.811-2.595 2-3.243 6.612-4.036 13.91-6.18 21.927-6.18v0zM829.588 46.528l16.324 36.287 16.288-36.287h-32.612zM811.534 23.627c0-2.054 1.622-3.676 3.622-3.676 1.82 0 3.171 1.027 3.874 2.757l7.387 16.504h38.954l7.387-16.306c0.703-1.64 2-2.955 3.982-2.955 2.108 0 3.838 1.73 3.838 3.838 0 0.631-0.216 1.351-0.541 2.054l-28.774 62.845c-0.883 2.252-2.54 3.549-4.973 3.549h-0.378c-2.577 0-4.090-1.297-5.063-3.549l-28.828-62.953c-0.378-0.811-0.486-1.513-0.486-2.108v0z" />
<glyph unicode="&#xe90b;" horiz-adv-x="2345" d="M2308.996 225.931c-0.595-13.297-5.91-24.522-15.946-33.747-10.054-9.225-22.090-13.838-36.071-13.838-12.108 0-22.936 2.613-32.504 7.82-11.549 6.27-18.828 15.315-21.963 27.207-0.883 3.477-0.468 6.793 1.333 9.892 1.874 3.117 4.54 5.135 8.018 6.018 3.495 0.865 6.793 0.45 9.928-1.351 3.099-1.856 5.099-4.54 6.018-8.018 1.333-4.955 4.973-8.865 10.919-11.675 5.333-2.468 11.423-3.694 18.252-3.694 6.973 0 12.955 2.216 17.946 6.576 5.045 4.324 7.712 9.675 8.036 16.036 0.126 3.874-1.243 7.333-4.126 10.36-4.649 4.919-12.342 7.423-23.189 7.567h-0.559c-18.198 0.306-32.089 5.549-41.783 15.729-7.946 8.468-11.639 18.288-11.153 29.513 0.631 13.369 5.91 24.666 15.946 33.855 10.036 9.225 22.072 13.838 36.107 13.838 12.072 0 22.936-2.613 32.558-7.82 11.459-6.234 18.792-15.297 21.909-27.171 0.883-3.477 0.396-6.793-1.441-9.91-1.784-3.099-4.432-5.153-7.91-6.018-3.477-0.883-6.829-0.468-9.928 1.333-3.099 1.856-5.135 4.54-6.018 8.018-1.333 4.937-4.991 8.865-11.009 11.693-5.279 2.45-11.333 3.694-18.162 3.694-7.009 0-13.027-2.198-18.054-6.594-4.955-4.36-7.603-9.711-7.91-16.036-0.144-3.838 1.225-7.351 4.108-10.45 4.613-4.829 12.36-7.333 23.189-7.459h0.559c18.198-0.324 32.143-5.567 41.747-15.837 7.982-8.378 11.675-18.234 11.153-29.531v0zM2169.991 204.778c3.622 0 6.721-1.297 9.225-3.91 2.595-2.595 3.91-5.73 3.91-9.351s-1.315-6.721-3.91-9.261c-2.504-2.558-5.603-3.91-9.225-3.91h-80.647c-3.676 0-6.721 1.351-9.261 3.91-2.613 2.54-3.91 5.64-3.91 9.261v133.582c0 3.694 1.297 6.829 3.91 9.333 2.54 2.595 5.585 3.892 9.261 3.892h0.090l80.557-0.198c3.622 0 6.757-1.315 9.369-3.91 2.486-2.613 3.766-5.712 3.766-9.369 0-3.622-1.315-6.721-3.91-9.207-2.504-2.613-5.603-3.91-9.225-3.91h-0.108l-67.314 0.18v-40.413h48.593c3.622 0 6.757-1.261 9.333-3.802 2.631-2.595 3.946-5.694 3.946-9.351 0-3.622-1.315-6.757-3.946-9.333-2.577-2.522-5.712-3.802-9.333-3.802h-48.593v-40.431h67.422zM1983.941 312.037h-33.080c-3.658 0-6.757 1.315-9.351 3.91-2.54 2.54-3.766 5.603-3.766 9.261 0 3.622 1.225 6.721 3.766 9.225 2.595 2.595 5.694 3.892 9.351 3.892h92.556c3.586 0 6.648-1.297 9.243-3.892 2.54-2.504 3.802-5.603 3.802-9.225 0-3.658-1.261-6.721-3.802-9.261-2.595-2.595-5.658-3.91-9.243-3.91h-33.188v-120.52c0-3.622-1.297-6.757-3.91-9.369-2.504-2.522-5.585-3.802-9.225-3.802-3.658 0-6.721 1.279-9.243 3.802-2.613 2.613-3.91 5.748-3.91 9.369v120.52zM1890.051 183.391h-0.144v0.108l-80.088 103.025v-95.007c0-3.622-1.261-6.721-3.874-9.261-2.54-2.558-5.621-3.91-9.261-3.91-3.658 0-6.721 1.351-9.243 3.91-2.613 2.54-3.91 5.64-3.91 9.261v133.438c0 2.847 0.811 5.351 2.468 7.603 1.604 2.288 3.802 3.874 6.432 4.793 2.649 0.937 5.279 1.009 8.018 0.198 2.685-0.811 4.865-2.324 6.63-4.576l80.052-103.133v95.115c0 3.658 1.261 6.757 3.802 9.261 2.595 2.595 5.694 3.91 9.351 3.91 3.64 0 6.721-1.315 9.225-3.91 2.649-2.504 3.91-5.603 3.91-9.261v-133.655c0-0.144-0.036-0.378-0.108-0.667v-0.559c0-0.144-0.036-0.36-0.108-0.667 0-0.288-0.036-0.541-0.108-0.667l-0.108-0.577c-0.054-0.342-0.126-0.595-0.234-0.667 0-0.072-0.072-0.234-0.216-0.559-0.072-0.288-0.144-0.486-0.216-0.667l-0.234-0.559-0.324-0.541-0.342-0.667-0.324-0.342c-0.072-0.144-0.252-0.36-0.45-0.667l-0.324-0.468-0.45-0.414c-0.252-0.324-0.396-0.468-0.468-0.468 0 0-0.144-0.198-0.45-0.45-0.216-0.216-0.396-0.36-0.523-0.432 0.198 0.144 0.162 0.108-0.144-0.090l-0.108-0.144c-0.559-0.432-1.135-0.811-1.658-1.099h-0.108c-0.595-0.306-1.189-0.559-1.748-0.775-0.324-0.144-0.396-0.198-0.252-0.144-0.595-0.198-1.225-0.342-1.91-0.414l-0.342-0.108c-0.631-0.072-1.261-0.144-1.874-0.144-0.45 0-0.901 0.072-1.441 0.144 0.144-0.072 0.072-0.072-0.198 0-0.468 0.072-0.847 0.144-1.135 0.216 0.072-0.072-0.108-0.036-0.45 0.108-0.396 0.072-0.667 0.144-0.919 0.198-0.072 0-0.216 0.108-0.432 0.252-0.378 0.072-0.667 0.18-0.865 0.324-0.18 0-0.324 0.108-0.468 0.234-0.27 0.144-0.559 0.252-0.775 0.324-0.198 0.144-0.378 0.288-0.45 0.36-0.216 0.126-0.45 0.306-0.775 0.523-0.216 0.18-0.396 0.252-0.414 0.342-0.396 0.324-0.757 0.613-1.027 0.883l-0.108 0.108v0.144c-0.324 0.252-0.45 0.414-0.45 0.414s-0.108 0.18-0.324 0.468v0zM1745.568 204.778c3.622 0 6.721-1.297 9.243-3.91 2.577-2.595 3.874-5.73 3.874-9.351s-1.297-6.721-3.874-9.261c-2.522-2.558-5.621-3.91-9.243-3.91h-80.665c-3.658 0-6.721 1.351-9.261 3.91-2.595 2.54-3.91 5.64-3.91 9.261v133.582c0 3.694 1.315 6.829 3.91 9.333 2.54 2.595 5.603 3.892 9.261 3.892h0.108l80.557-0.198c3.622 0 6.757-1.315 9.351-3.91 2.54-2.613 3.766-5.712 3.766-9.369 0-3.622-1.297-6.721-3.874-9.207-2.522-2.613-5.621-3.91-9.243-3.91h-0.108l-67.332 0.18v-40.413h48.611c3.622 0 6.757-1.261 9.351-3.802 2.613-2.595 3.874-5.694 3.874-9.351 0-3.622-1.261-6.757-3.874-9.333-2.595-2.522-5.73-3.802-9.351-3.802h-48.611v-40.431h67.44zM1556.167 178.815c-21.963 0-40.756 7.802-56.377 23.405-15.585 15.585-23.369 34.378-23.369 56.359 0 21.963 7.784 40.72 23.369 56.287 15.621 15.585 34.414 23.351 56.377 23.351 18.054 0 34.197-5.477 48.449-16.468 2.919-2.252 4.613-5.171 5.135-8.793 0.432-3.586-0.45-6.793-2.667-9.711-2.252-2.883-5.135-4.576-8.684-4.991-3.64-0.541-6.901 0.306-9.784 2.558-9.621 7.333-20.414 11.027-32.45 11.027-14.72 0-27.279-5.207-37.765-15.603-10.414-10.486-15.585-23.008-15.585-37.657 0-14.702 5.171-27.297 15.585-37.747 10.486-10.414 23.045-15.621 37.765-15.621 13.747 0 25.729 4.631 35.855 13.928 0.18 0.144 0.414 0.396 0.775 0.667l0.144 29.207h-43.567c-3.73 0-6.829 1.279-9.369 3.766-2.595 2.613-3.874 5.748-3.874 9.369 0 3.658 1.279 6.757 3.874 9.351 2.54 2.613 5.64 3.91 9.369 3.91h56.827c3.622 0 6.757-1.297 9.369-3.91 2.558-2.595 3.892-5.694 3.892-9.351l-0.342-70.629c0-3.622-1.297-6.721-3.91-9.261-2.522-2.558-5.585-3.91-9.261-3.91h-0.090c-2.955 0-5.64 0.955-8.036 2.829-2.288 1.748-3.838 4.036-4.576 6.793-11.639-6.090-23.999-9.153-37.080-9.153v0zM1437.755 178.346c-3.64 0-6.739 1.351-9.261 3.91-2.577 2.54-3.874 5.64-3.874 9.261v132.916c0 3.622 1.297 6.721 3.874 9.225 2.522 2.595 5.621 3.892 9.261 3.892 3.658 0 6.757-1.297 9.243-3.892 2.613-2.504 3.91-5.603 3.91-9.225v-132.916c0-3.622-1.297-6.721-3.91-9.261-2.486-2.558-5.585-3.91-9.243-3.91v0zM1318.209 338.126c3.658 0 6.721-1.315 9.243-3.91 2.613-2.504 3.91-5.603 3.91-9.261v-120.285h58.918c3.658 0 6.793-1.297 9.387-3.892 2.504-2.54 3.766-5.64 3.766-9.261s-1.261-6.721-3.766-9.261c-2.595-2.558-5.73-3.91-9.387-3.91h-72.070c-3.585 0-6.685 1.351-9.225 3.91-2.595 2.54-3.91 5.64-3.91 9.261v133.438c0 3.658 1.315 6.757 3.91 9.261 2.54 2.595 5.64 3.91 9.225 3.91v0zM1266.642 204.778c3.676 0 6.721-1.297 9.261-3.91 2.613-2.595 3.874-5.73 3.874-9.351s-1.261-6.721-3.874-9.261c-2.54-2.558-5.585-3.91-9.261-3.91h-80.647c-3.622 0-6.721 1.351-9.261 3.91-2.559 2.54-3.91 5.64-3.91 9.261v133.582c0 3.694 1.351 6.829 3.91 9.333 2.54 2.595 5.64 3.892 9.261 3.892h0.144l80.503-0.198c3.676 0 6.757-1.315 9.369-3.91 2.54-2.613 3.766-5.712 3.766-9.369 0-3.622-1.261-6.721-3.874-9.207-2.54-2.613-5.585-3.91-9.261-3.91h-0.090l-67.296 0.18v-40.413h48.575c3.658 0 6.757-1.261 9.351-3.802 2.613-2.595 3.874-5.694 3.874-9.351 0-3.622-1.261-6.757-3.874-9.333-2.595-2.522-5.694-3.802-9.351-3.802h-48.575v-40.431h67.386zM1080.593 312.037h-33.080c-3.622 0-6.757 1.315-9.351 3.91-2.504 2.54-3.802 5.603-3.802 9.261 0 3.622 1.297 6.721 3.802 9.225 2.595 2.595 5.73 3.892 9.351 3.892h92.592c3.549 0 6.648-1.297 9.261-3.892 2.486-2.504 3.766-5.603 3.766-9.225 0-3.658-1.279-6.721-3.766-9.261-2.613-2.595-5.712-3.91-9.261-3.91h-33.224v-120.52c0-3.622-1.297-6.757-3.874-9.369-2.522-2.522-5.621-3.802-9.243-3.802s-6.721 1.279-9.261 3.802c-2.595 2.613-3.91 5.748-3.91 9.369v120.52zM986.703 183.391h-0.108v0.108l-80.088 103.025v-95.007c0-3.622-1.333-6.721-3.91-9.261-2.522-2.558-5.621-3.91-9.243-3.91s-6.721 1.351-9.261 3.91c-2.613 2.54-3.91 5.64-3.91 9.261v133.438c0 2.847 0.847 5.351 2.468 7.603 1.622 2.288 3.802 3.874 6.468 4.793 2.613 0.937 5.279 1.009 8.036 0.198 2.667-0.811 4.847-2.324 6.54-4.576l80.124-103.133v95.115c0 3.658 1.261 6.757 3.766 9.261 2.613 2.595 5.748 3.91 9.369 3.91s6.721-1.315 9.243-3.91c2.577-2.504 3.874-5.603 3.874-9.261v-133.655c0-0.144 0-0.378-0.108-0.667v-0.559c0-0.144-0.036-0.36-0.108-0.667 0-0.288 0-0.541-0.090-0.667l-0.108-0.577c-0.072-0.342-0.144-0.595-0.252-0.667 0-0.072-0.036-0.234-0.216-0.559-0.072-0.288-0.126-0.486-0.198-0.667l-0.252-0.559-0.324-0.541-0.342-0.667-0.324-0.342c-0.072-0.144-0.198-0.36-0.45-0.667l-0.324-0.468-0.45-0.414c-0.216-0.324-0.36-0.468-0.36-0.468-0.072-0.072-0.198-0.198-0.523-0.45-0.216-0.216-0.378-0.36-0.559-0.432 0.252 0.144 0.216 0.108-0.108-0.090l-0.108-0.144c-0.595-0.432-1.153-0.811-1.694-1.099h-0.072c-0.631-0.306-1.225-0.559-1.82-0.775-0.288-0.144-0.36-0.198-0.216-0.144-0.595-0.198-1.225-0.342-1.856-0.414l-0.36-0.108c-0.667-0.072-1.297-0.144-1.892-0.144-0.432 0-0.955 0.072-1.441 0.144 0.126-0.072 0.072-0.072-0.252 0-0.432 0.072-0.811 0.144-1.099 0.216 0.072-0.072-0.072-0.036-0.45 0.108-0.36 0.072-0.667 0.144-0.883 0.198 0 0-0.216 0.108-0.45 0.252-0.36 0.072-0.631 0.18-0.883 0.324-0.144 0-0.324 0.108-0.414 0.234-0.324 0.144-0.613 0.252-0.811 0.324-0.216 0.144-0.36 0.288-0.468 0.36-0.216 0.126-0.486 0.306-0.775 0.523-0.198 0.18-0.342 0.252-0.414 0.342-0.396 0.324-0.739 0.613-1.027 0.883l-0.108 0.108v0.144c-0.27 0.252-0.45 0.414-0.45 0.414s-0.108 0.18-0.324 0.468v0zM832.184 178.346c-3.622 0-6.721 1.351-9.261 3.91-2.595 2.54-3.856 5.64-3.856 9.261v132.916c0 3.622 1.261 6.721 3.856 9.225 2.54 2.595 5.64 3.892 9.261 3.892 3.658 0 6.721-1.297 9.261-3.892 2.595-2.504 3.91-5.603 3.91-9.225v-132.916c0-3.622-1.315-6.721-3.91-9.261-2.54-2.558-5.603-3.91-9.261-3.91v0z" />
<glyph unicode="&#xe90c;" horiz-adv-x="2345" d="M1882.696 658.423c-0.595-13.261-5.91-24.522-15.946-33.747-10.090-9.189-22.126-13.801-36.071-13.801-12.144 0-22.972 2.613-32.54 7.784-11.513 6.27-18.828 15.315-21.963 27.207-0.883 3.477-0.468 6.793 1.369 9.928 1.838 3.081 4.504 5.099 7.982 6 3.495 0.883 6.793 0.432 9.928-1.369 3.135-1.82 5.099-4.504 6.018-7.982 1.333-4.991 4.973-8.901 10.919-11.711 5.351-2.432 11.423-3.712 18.288-3.712 6.973 0 12.955 2.234 17.909 6.63 5.045 4.288 7.748 9.639 8.036 16 0.144 3.874-1.243 7.333-4.126 10.396-4.613 4.883-12.342 7.423-23.153 7.531h-0.559c-18.198 0.306-32.125 5.549-41.819 15.729-7.91 8.468-11.639 18.288-11.117 29.513 0.613 13.369 5.874 24.666 15.946 33.855 10.036 9.225 22.036 13.838 36.071 13.838 12.108 0 22.936-2.613 32.522-7.784 11.495-6.27 18.828-15.351 21.945-27.207 0.919-3.477 0.432-6.793-1.441-9.91-1.784-3.099-4.396-5.117-7.91-6.018-3.477-0.883-6.793-0.432-9.892 1.333-3.135 1.856-5.135 4.54-6.018 8.018-1.369 4.991-5.027 8.865-11.045 11.675-5.279 2.504-11.333 3.712-18.162 3.712-6.973 0-12.991-2.198-18.054-6.558-4.955-4.396-7.603-9.748-7.874-16.036-0.18-3.874 1.189-7.387 4.108-10.486 4.576-4.829 12.324-7.333 23.153-7.459h0.559c18.198-0.324 32.143-5.567 41.783-15.837 7.946-8.378 11.675-18.234 11.153-29.531v0zM1743.655 637.271c3.622 0 6.721-1.297 9.261-3.91 2.559-2.595 3.91-5.694 3.91-9.351 0-3.622-1.351-6.721-3.91-9.225-2.54-2.595-5.64-3.91-9.261-3.91h-80.647c-3.658 0-6.721 1.315-9.225 3.91-2.649 2.504-3.91 5.603-3.91 9.225v133.582c0 3.694 1.261 6.829 3.91 9.333 2.504 2.631 5.567 3.928 9.225 3.928h0.090l80.557-0.234c3.622 0 6.757-1.315 9.369-3.874 2.486-2.613 3.802-5.748 3.802-9.405 0-3.622-1.351-6.685-3.91-9.207-2.54-2.613-5.64-3.91-9.261-3.91h-0.108l-67.278 0.18v-40.413h48.557c3.622 0 6.757-1.261 9.369-3.766 2.595-2.595 3.91-5.73 3.91-9.351 0-3.658-1.315-6.757-3.91-9.369-2.613-2.522-5.748-3.802-9.369-3.802h-48.557v-40.431h67.386zM1503.804 610.875c-3.567 0-6.612 1.279-9.225 3.766-2.613 2.613-3.91 5.748-3.91 9.369v133.33c0 3.658 1.297 6.793 3.91 9.405 2.504 2.486 5.603 3.766 9.225 3.766h33.783c21.945 0 40.738-7.748 56.341-23.261 15.513-15.639 23.297-34.396 23.297-56.269 0-21.999-7.784-40.756-23.297-56.269-15.603-15.603-34.396-23.405-56.341-23.405l-33.783-0.432zM1517.065 637.379l20.378 0.36c14.81 0 27.369 5.171 37.801 15.585 10.378 10.378 15.585 22.936 15.585 37.657 0 14.63-5.207 27.134-15.585 37.549-10.432 10.45-22.954 15.693-37.657 15.693h-20.522v-106.844zM1338.727 611.866c-3.351 1.405-5.712 3.802-7.117 7.135-1.333 3.351-1.333 6.703 0 10.036l14.144 33.963v0.108l40.972 98.917c0.126 0.378 0.342 0.775 0.559 1.117l0.252 0.577c0.198 0.306 0.342 0.486 0.414 0.559 0 0 0.108 0.252 0.36 0.559l0.414 0.432c0 0.108 0.144 0.234 0.36 0.45 0.306 0.288 0.414 0.468 0.414 0.468 0.108 0.162 0.252 0.27 0.45 0.414 0.324 0.306 0.504 0.45 0.577 0.45-0.072 0 0.054 0.108 0.45 0.36 0.288 0.216 0.45 0.342 0.559 0.414l0.432 0.36c0.378 0.216 0.595 0.306 0.595 0.306 0.252 0.072 0.486 0.18 0.847 0.36 0.378 0.216 0.486 0.288 0.342 0.216l0.432 0.198c0.378 0.072 0.631 0.18 0.811 0.252 0.072 0 0.306 0.072 0.775 0.216l0.45 0.108c0.144 0 0.378 0.036 0.775 0.072l0.559 0.126h2.54l0.667-0.126 0.559-0.072c0.18 0 0.432-0.072 0.811-0.216 0.432-0.072 0.559-0.108 0.432-0.108 0.865-0.252 1.712-0.559 2.45-1.027-0.108 0.072 0.072 0 0.432-0.198 0.378-0.252 0.595-0.396 0.667-0.468l0.45-0.306c0.288-0.252 0.504-0.396 0.559-0.468 0 0 0.216-0.126 0.432-0.306 0.252-0.252 0.414-0.396 0.595-0.468 0 0 0.072-0.234 0.324-0.45 0.27-0.288 0.45-0.45 0.45-0.559l0.324-0.432c0.306-0.306 0.45-0.486 0.45-0.486s0.108-0.324 0.324-0.631c0.234-0.288 0.342-0.504 0.342-0.504 0.216-0.414 0.396-0.811 0.523-1.189l41.008-98.917v-0.108l14.18-33.963c1.333-3.333 1.333-6.685 0-10.036-1.441-3.333-3.802-5.73-7.153-7.135-1.64-0.667-3.297-0.991-4.991-0.991-5.874 0-9.964 2.721-12.144 8.126l-10.72 25.837h-64.503l-10.666-25.837c-2.252-5.405-6.306-8.126-12.144-8.126h-2.613c0 0-0.811 0.324-2.414 0.991v0zM1420.257 671.018l-21.495 51.692-21.369-51.692h42.864zM1194.334 610.875c-3.549 0-6.612 1.279-9.225 3.766-2.595 2.613-3.91 5.748-3.91 9.369v133.33c0 3.658 1.315 6.793 3.91 9.405 2.504 2.486 5.603 3.766 9.225 3.766h33.783c21.963 0 40.756-7.748 56.341-23.261 15.549-15.639 23.297-34.396 23.297-56.269 0-21.999-7.748-40.756-23.297-56.269-15.585-15.603-34.378-23.405-56.341-23.405l-33.783-0.432zM1207.595 637.379l20.414 0.36c14.738 0 27.351 5.171 37.765 15.585 10.378 10.378 15.585 22.936 15.585 37.657 0 14.63-5.207 27.134-15.585 37.549-10.414 10.45-22.99 15.693-37.657 15.693h-20.522v-106.844zM1132.966 770.619c3.586 0 6.612-1.279 9.117-3.766 2.559-2.54 3.784-5.603 3.784-9.153v-89.782c0-15.765-5.549-29.207-16.666-40.323-11.153-11.153-24.576-16.72-40.233-16.72-15.729 0-29.17 5.567-40.323 16.72-11.117 11.117-16.72 24.558-16.72 40.323v89.782c0 3.549 1.279 6.612 3.802 9.153 2.504 2.486 5.567 3.766 9.153 3.766 3.549 0 6.576-1.279 9.117-3.766 2.522-2.54 3.766-5.603 3.766-9.153v-89.782c0-8.612 3.063-15.964 9.153-22.054s13.441-9.153 22.054-9.153c8.558 0 15.874 3.063 21.963 9.153 6.054 6.090 9.117 13.441 9.117 22.054v89.782c0 3.549 1.261 6.612 3.802 9.153 2.486 2.486 5.549 3.766 9.117 3.766v0zM986.501 610.875c-3.658 0-6.757 1.315-9.261 3.91-2.595 2.504-3.91 5.603-3.91 9.225v132.916c0 3.622 1.315 6.721 3.91 9.225 2.504 2.595 5.603 3.892 9.261 3.892 3.622 0 6.685-1.297 9.207-3.892 2.613-2.504 3.91-5.603 3.91-9.225v-132.916c0-3.622-1.297-6.721-3.91-9.225-2.522-2.595-5.585-3.91-9.207-3.91v0zM889.999 610.875c-21.927 0-40.648 7.748-56.233 23.261-15.513 15.639-23.297 34.36-23.297 56.269 0 21.999 7.784 40.756 23.297 56.251 15.585 15.621 34.306 23.387 56.233 23.387 18.054 0 34.251-5.477 48.575-16.468 2.811-2.216 4.504-5.135 5.027-8.684 0.45-3.658-0.45-6.901-2.685-9.784-2.252-2.919-5.099-4.576-8.684-5.027-3.622-0.468-6.901 0.414-9.784 2.558-9.531 7.351-20.342 10.991-32.45 10.991-14.63 0-27.135-5.189-37.513-15.567-10.414-10.378-15.621-22.936-15.621-37.657 0-14.63 5.207-27.116 15.621-37.549 10.378-10.378 22.882-15.585 37.513-15.585 13.838 0 25.765 4.613 35.873 13.838 2.703 2.432 5.838 3.586 9.495 3.441 3.622-0.144 6.685-1.622 9.117-4.36 2.45-2.667 3.586-5.802 3.477-9.459-0.18-3.64-1.586-6.703-4.252-9.117-15.207-13.838-33.116-20.738-53.71-20.738v0z" />
<glyph unicode="&#xe90d;" glyph-name="funnel" d="M932.854 908.8h-840.838c-14.83 0.027-28.426-8.068-35.205-20.96-6.873-13.066-5.666-28.8 3.114-40.733l308.048-424.032c0.103-0.146 0.215-0.283 0.318-0.429 11.193-14.765 17.243-32.647 17.28-51.030v-345.71c-0.065-10.243 4.049-20.074 11.436-27.338s17.43-11.339 27.902-11.339c5.33 0 10.594 1.042 15.513 3.034l173.099 64.498c15.513 4.623 25.808 18.923 25.808 36.146v280.709c0.028 18.375 6.087 36.265 17.271 51.030 0.103 0.146 0.215 0.283 0.318 0.429l308.038 424.051c8.78 11.924 9.986 27.649 3.114 40.715-6.779 12.892-20.375 20.988-35.215 20.96zM617.999 450.357c-17.205-22.815-26.509-50.4-26.565-78.743v-275.025l-157.989-58.861v333.886c-0.056 28.343-9.36 55.928-26.575 78.743l-299.062 411.661h809.261l-299.071-411.661z" />
<glyph unicode="&#xe90e;" horiz-adv-x="808" d="M94.656 735.203c11.926-21.952 26.19-50.078 37.213-46.638 2.378 0.941 3.151 6.406-0.407 24.083l-21.555 39.948c-2.982 4.541-11.455 1.102-11.998-3.632l-3.254-13.762z" />
<glyph unicode="&#xe90f;" horiz-adv-x="808" d="M112.91 710.935l3.929 10.826c-7.968 9.637-20.282 27.206-33.472 49.048-2.727 4.52-12.070 1.853-9.841-3.168 17.805-31.695 30.457-48.369 39.384-56.705z" />
<glyph unicode="&#xe910;" glyph-name="geolocation" d="M869.427 448h77.773c14.138 0 25.6-11.462 25.6-25.6s-11.462-25.6-25.6-25.6v0h-77.773c-13.018-163.621-142.606-293.208-305.061-306.152l-1.167-0.075v-77.773c0-14.138-11.462-25.6-25.6-25.6s-25.6 11.462-25.6 25.6v0 77.773c-163.621 13.018-293.208 142.606-306.152 305.061l-0.075 1.167h-77.773c-14.138 0-25.6 11.462-25.6 25.6s11.462 25.6 25.6 25.6v0h77.773c13.018 163.621 142.606 293.208 305.061 306.152l1.167 0.075v77.773c0 14.138 11.462 25.6 25.6 25.6s25.6-11.462 25.6-25.6v0-77.773c163.621-13.018 293.208-142.606 306.152-305.061l0.075-1.167zM818.074 448c-12.743 135.327-119.546 242.13-253.747 254.788l-1.127 0.086v-24.474c0-14.138-11.462-25.6-25.6-25.6s-25.6 11.462-25.6 25.6v0 24.474c-135.327-12.743-242.13-119.546-254.788-253.747l-0.086-1.127h24.474c14.138 0 25.6-11.462 25.6-25.6s-11.462-25.6-25.6-25.6v0h-24.474c12.743-135.327 119.546-242.13 253.747-254.788l1.127-0.086v24.474c0 14.138 11.462 25.6 25.6 25.6s25.6-11.462 25.6-25.6v0-24.474c135.327 12.743 242.13 119.546 254.788 253.747l0.086 1.127h-24.474c-14.138 0-25.6 11.462-25.6 25.6s11.462 25.6 25.6 25.6v0h24.474zM537.6 294.4c-70.692 0-128 57.308-128 128s57.308 128 128 128v0c70.692 0 128-57.308 128-128s-57.308-128-128-128v0zM537.6 345.6c42.415 0 76.8 34.385 76.8 76.8s-34.385 76.8-76.8 76.8v0c-42.415 0-76.8-34.385-76.8-76.8s34.385-76.8 76.8-76.8v0z" />
<glyph unicode="&#xe911;" glyph-name="hand" d="M707.584 644.403c10.164 5.306 22.199 8.419 34.961 8.419 35.228 0 64.916-23.719 73.966-56.058l0.129-0.54c8.372 3.41 18.086 5.389 28.262 5.389 42.415 0 76.8-34.385 76.8-76.8 0-0.005 0-0.009 0-0.014v0.001l-0.102-281.6c0-159.13-126.874-253.594-306.842-256-84.787-1.126-128.154 17.254-219.853 81.408-43.213 30.31-130.867 115.2-265.062 256.41-17.044 17.92-27.529 42.218-27.529 68.965 0 28.53 11.93 54.273 31.073 72.514l0.041 0.038c18.204 17.348 42.904 28.022 70.096 28.022 28.069 0 53.482-11.373 71.882-29.763l37.068-37.068c4.868-4.888 11.604-7.912 19.046-7.912 14.837 0 26.867 12.021 26.88 26.855v410.932c0 56.554 45.846 102.4 102.4 102.4s102.4-45.846 102.4-102.4v-167.322c14.688 8.627 32.352 13.722 51.205 13.722 41.028 0 76.42-24.129 92.761-58.97l0.264-0.627zM716.902 576v-51.2c0-14.138-11.462-25.6-25.6-25.6s-25.6 11.462-25.6 25.6v0 76.8c0 28.277-22.923 51.2-51.2 51.2s-51.2-22.923-51.2-51.2v0-25.6c0-14.138-11.462-25.6-25.6-25.6s-25.6 11.462-25.6 25.6v0 281.6c0 28.277-22.923 51.2-51.2 51.2s-51.2-22.923-51.2-51.2v0-410.88c0-0.020 0-0.044 0-0.068 0-43.122-34.958-78.080-78.080-78.080-21.578 0-41.112 8.753-55.244 22.902l-37.070 37.121c-9.136 9.136-21.757 14.786-35.697 14.786-13.502 0-25.767-5.301-34.825-13.935l0.020 0.019c-9.374-8.934-15.203-21.514-15.203-35.457 0-13.076 5.128-24.955 13.482-33.735l-0.019 0.020c131.533-138.445 218.010-222.208 257.331-249.702 83.712-58.624 118.016-73.165 189.747-72.192 154.778 2.048 256.358 77.67 256.358 204.8v281.6c0 14.138-11.462 25.6-25.6 25.6s-25.6-11.462-25.6-25.6v0-51.2c0-14.138-11.462-25.6-25.6-25.6s-25.6 11.462-25.6 25.6v0 102.4c0 14.138-11.462 25.6-25.6 25.6s-25.6-11.462-25.6-25.6v0z" />
<glyph unicode="&#xe912;" glyph-name="help" d="M512-64c-282.778 0-512 229.222-512 512s229.222 512 512 512 512-229.222 512-512-229.222-512-512-512zM512-12.8c254.493 0 460.8 206.307 460.8 460.8s-206.307 460.8-460.8 460.8v0c-254.493 0-460.8-206.307-460.8-460.8s206.307-460.8 460.8-460.8v0zM460.8 192v102.4h102.4v-102.4h-102.4zM461.005 345.446v14.029c0 11.264 0.358 21.555 1.075 30.822 0.768 9.216 2.56 18.125 5.53 26.624 2.918 8.448 9.37 17.152 15.155 25.805 5.786 8.602 13.722 18.176 23.859 28.57 8.806 9.165 16.077 17.203 21.862 24.064s10.394 13.056 13.824 18.534c3.379 5.478 5.734 10.547 7.014 15.206s1.894 9.37 1.894 14.131v3.482c0.017 0.398 0.027 0.866 0.027 1.335 0 5.198-1.22 10.112-3.389 14.469l0.085-0.189c-2.386 4.179-5.888 7.483-10.102 9.564l-0.138 0.062c-4.557 2.406-10.24 4.096-17.050 5.018-6.836 0.949-14.733 1.491-22.758 1.491-0.531 0-1.062-0.002-1.592-0.007l0.081 0.001c-6.4 0-13.261-0.154-20.48-0.41l-22.221-0.922c-7.526-0.358-15.053-0.819-22.579-1.331l-21.504-1.536v61.542c15.949 5.433 34.811 9.843 54.25 12.426l1.558 0.169c20.992 2.97 43.213 4.403 66.56 4.403 43.878 0 77.158-7.066 99.738-21.146 22.579-14.131 33.894-37.069 33.894-68.813v-4.25c0-9.165-0.973-17.818-2.918-25.907-1.894-8.141-5.12-16.23-9.626-24.371-5.439-9.458-11.368-17.637-18.049-25.132l0.129 0.147c-7.424-8.55-29.747-33.024-39.782-44.8-4.875-5.691-9.96-12.059-14.829-18.597l-0.685-0.961c-4.454-6.093-11.776-17.613-13.773-23.962-4.096-12.954-2.97-27.955-2.97-35.533v-14.029h-102.093z" />
<glyph unicode="&#xe913;" glyph-name="home" d="M740.557-10.189c44.288 0 78.694 34.355 78.694 76.8v407.194c0 14.138 11.462 25.6 25.6 25.6v0h91.341l-406.118 401.971c-4.625 4.585-10.993 7.419-18.022 7.419s-13.398-2.833-18.024-7.421l-406.117-401.969h91.29c14.138 0 25.6-11.462 25.6-25.6v0-409.805c0-42.415 34.385-76.8 76.8-76.8v0h76.8v256.102c0 14.138 11.462 25.6 25.6 25.6v0h256c14.138 0 25.6-11.462 25.6-25.6v0-251.597l74.906-1.894zM870.4 448.205v-381.594c0-70.692-57.308-128-128-128v0h-3.174l-99.84 2.56c-13.872 0.344-24.986 11.67-24.986 25.593 0 0.003 0 0.005 0 0.008v0 250.931h-204.8v-256.102c0-14.138-11.462-25.6-25.6-25.6v0h-102.4c-70.692 0-128 57.308-128 128v0 384.205h-128c-14.136 0.003-25.595 11.463-25.595 25.6 0 7.106 2.895 13.536 7.571 18.174l0.002 0.002 450.458 445.798c13.869 13.726 32.952 22.206 54.016 22.206s40.147-8.48 54.022-22.212l-0.006 0.006 450.406-445.798c4.677-4.64 7.572-11.070 7.572-18.176 0-14.137-11.459-25.597-25.595-25.6h-128z" />
<glyph unicode="&#xe914;" glyph-name="horizontal-white" horiz-adv-x="6997" d="M1407.787 10.795v755.413c-121.344 42.923-267.435 65.963-351.36 44.501-43.861-11.264-105.685-39.893-127.275-96.597v-637.781c21.589-56.619 82.603-83.669 126.635-94.421 79.061-19.371 230.656-14.037 352 28.885zM337.493 157.013v467.925c-85.547 30.293-188.587 38.656-247.893 23.467-30.848-7.893-74.411-20.267-89.6-60.16v-385.024c15.189-39.979 58.667-50.816 89.6-58.496 55.851-13.611 162.347-18.005 247.893 12.288zM664.405 889.131c0 18.048-20.821 31.104-40.021 27.989-18.987-3.072-33.237-19.883-33.237-41.045v-99.243l-2.145-0.118c15.871 1.088 31.889 1.64 48.036 1.64 9.625 0 19.204-0.196 27.368-0.541v111.36zM408.277 895.659s42.667 32.427 80.64 39.893c7.205 1.403 15.49 2.205 23.963 2.205 13.912 0 27.318-2.164 39.9-6.173l-0.93 0.256s42.795 28.16 85.333 28.16c41.131 0 66.688-10.496 66.688-10.496v-130.56c55.168-14.379 126.293-54.997 154.88-83.456v-668.288c-107.179-37.931-255.147-42.923-325.077-25.771-38.827 9.429-106.325 36.181-125.44 86.229v768zM518.101 863.872c0 18.048-16.683 31.403-36.011 28.373-18.901-3.115-31.573-19.925-31.573-41.088v-98.347c20.437 6.229 38.443 9.941 67.584 15.189v95.915zM1921.621 176.469c-25.344-19.541-61.611-29.781-109.525-29.781-134.827 0-196.437 122.112-196.437 257.237 0 133.12 63.104 257.28 197.205 257.28 48.64 0 83.413-10.88 108.032-29.013l-23.893-71.253c-13.824 8.747-31.189 15.275-58.795 15.275-76.843 0-101.504-85.803-101.504-171.52 0-84.949 28.331-167.808 100.864-167.808 27.605 0 41.344 5.803 57.216 15.232l26.88-75.648zM2199.936 351.659c0 69.803-10.155 130.859-60.16 130.859-50.133 0-60.16-61.013-60.16-130.859 0-70.485 10.837-127.957 60.16-127.957 50.005 0 60.16 57.472 60.16 127.957zM2312.32 350.165c0-116.907-59.52-203.52-172.587-203.52-113.109 0-172.629 86.613-172.629 203.52 0 116.992 59.52 202.752 171.947 202.752 113.749 0 173.227-85.76 173.227-202.752zM2714.581 154.027h-113.109v273.92c0 27.648-12.373 54.528-58.027 54.528-0.677 0.012-1.475 0.019-2.275 0.019-16.377 0-32.065-2.948-46.563-8.342l0.924 0.301v-320.427h-113.152v369.92c39.253 17.365 94.379 28.928 163.883 28.928 124.032 0 168.32-52.992 168.32-124.203v-274.645zM3041.408 175.019c-16.64-16-46.336-28.373-95.701-28.373-92.843 0-161.024 72.789-161.024 204.331 0 132.267 73.259 201.899 160.256 201.899 47.915 0 78.336-13.781 95.701-28.203l-23.168-62.549c-10.155 7.979-23.893 15.275-46.336 15.275-49.365 0-72.576-45.056-72.576-125.013 0-79.275 26.837-124.928 71.851-124.928 20.949 0 35.413 5.76 47.061 15.872l23.893-68.267zM3324.075 385.792c0 69.803-23.168 100.309-64.512 100.309-46.421 0-75.392-40.021-71.808-120.661l136.32 20.352zM3429.163 343.595l-234.112-33.28c7.936-57.557 36.907-85.76 94.208-85.76 45.653 0 80.555 10.069 101.547 20.992l25.344-70.485c-30.464-15.275-73.899-28.373-139.904-28.373-119.68 0-188.587 79.36-188.587 204.203 0 122.88 63.915 202.027 176.213 202.027 113.067 0 170.453-76.971 165.291-209.323zM3501.568 154.069v570.453h113.152v-570.453h-113.152zM3703.040 154.069v570.453h113.152v-570.453h-113.152zM4121.301 351.616c0 69.845-10.112 130.901-60.16 130.901-50.091 0-60.245-61.013-60.245-130.859 0-70.485 10.965-127.957 60.245-127.957 50.048 0 60.16 57.472 60.16 127.957zM4233.728 350.165c0-116.907-59.52-203.52-172.587-203.52-113.109 0-172.629 86.613-172.629 203.52 0 116.992 59.52 202.752 171.947 202.752 113.749 0 173.227-85.76 173.227-202.752zM4710.485 224.555v258.005c-9.387 2.901-19.541 4.267-31.147 4.267-62.421 0-86.315-53.76-86.315-134.4 0-85.077 25.387-133.717 82.688-133.717 15.232 0 26.752 1.365 34.773 5.888zM4822.912 175.829c-35.627-18.901-81.963-29.141-149.419-29.141-118.187 0-192.128 69.845-192.128 200.619 0 125.696 71.040 202.752 171.819 202.752 23.253 0 42.837-2.859 57.301-6.571v180.992h112.427v-548.693zM5129.557 385.749c0 69.845-23.168 100.352-64.597 100.352-46.336 0-75.392-40.021-71.68-120.661l136.277 20.352zM5234.645 343.595l-234.197-33.28c8.021-57.557 36.992-85.76 94.208-85.76 45.781 0 80.555 10.069 101.547 20.992l25.429-70.485c-30.421-15.275-73.899-28.373-139.947-28.373-119.723 0-188.587 79.36-188.587 204.203 0 122.88 63.872 202.027 176.299 202.027 113.067 0 170.411-76.971 165.248-209.323zM5746.389 154.027h-244.352v499.968h117.376v-420.779h126.976v-79.189zM6136.405 177.28c-36.181-18.304-89.941-30.592-163.157-30.592-110.251 0-163.84 41.515-163.84 135.851v263.168h113.067v-271.019c0-28.331 15.275-51.541 53.675-51.541 20.267 0 34.859 2.859 47.147 9.259v313.301h113.109v-368.427zM6435.883 225.195v255.744c-8.747 4.437-20.309 6.571-35.627 6.571-58.027 0-81.92-47.275-81.92-140.971 0-88.704 23.253-130.773 79.787-130.773 15.232 0 28.331 3.669 37.76 9.429zM6546.048 151.168c0-111.232-71.040-162.176-171.093-162.176-60.16 0-114.688 11.733-145.792 29.184l29.013 73.387c23.979-13.141 59.477-23.253 96.512-23.253 59.307 0 81.195 28.245 81.195 73.387v21.76c-13.099-7.339-35.627-12.288-68.181-12.288-93.568 0-161.024 71.979-161.024 188.885 0 130.731 66.773 212.864 200.875 212.864 60.245 0 111.019-12.331 138.496-28.971v-372.779zM6848.981 351.659c0 69.803-10.112 130.859-60.16 130.859s-60.203-61.013-60.203-130.859c0-70.485 10.88-127.957 60.245-127.957 50.005 0 60.16 57.472 60.16 127.957zM6961.408 350.165c0-116.907-59.52-203.52-172.544-203.52-113.152 0-172.672 86.613-172.672 203.52 0 116.992 59.52 202.752 171.947 202.752 113.749 0 173.269-85.76 173.269-202.752z" />
<glyph unicode="&#xe915;" glyph-name="info" d="M512 960c-282.778 0-512-229.222-512-512s229.222-512 512-512 512 229.222 512 512-229.222 512-512 512zM512 908.8c254.493 0 460.8-206.307 460.8-460.8s-206.307-460.8-460.8-460.8v0c-254.493 0-460.8 206.307-460.8 460.8s206.307 460.8 460.8 460.8v0zM486.4 678.4c0-14.138 11.462-25.6 25.6-25.6s25.6 11.462 25.6 25.6v0c0 14.138-11.462 25.6-25.6 25.6s-25.6-11.462-25.6-25.6v0zM486.4 576v-358.4c0-14.138 11.462-25.6 25.6-25.6s25.6 11.462 25.6 25.6v0 358.4c0 14.138-11.462 25.6-25.6 25.6s-25.6-11.462-25.6-25.6v0z" />
<glyph unicode="&#xe916;" glyph-name="list" horiz-adv-x="1317" d="M548.571 813.714h731.429c20.198 0 36.571-16.374 36.571-36.571s-16.374-36.571-36.571-36.571v0h-731.429c-20.198 0-36.571 16.374-36.571 36.571s16.374 36.571 36.571 36.571v0zM548.571 448h731.429c20.198 0 36.571-16.374 36.571-36.571s-16.374-36.571-36.571-36.571v0h-731.429c-20.198 0-36.571 16.374-36.571 36.571s16.374 36.571 36.571 36.571v0zM548.571 82.286h731.429c20.198 0 36.571-16.374 36.571-36.571s-16.374-36.571-36.571-36.571v0h-731.429c-20.198 0-36.571 16.374-36.571 36.571s16.374 36.571 36.571 36.571v0zM56.832 807.57l82.432-54.857 161.792 194.121c6.738 7.674 16.569 12.491 27.525 12.491 20.198 0 36.571-16.374 36.571-36.571 0-8.625-2.985-16.552-7.979-22.805l0.057 0.073-182.857-219.429c-6.755-8.059-16.826-13.148-28.086-13.148-7.55 0-14.567 2.288-20.393 6.209l0.131-0.083-109.714 73.143c-10.398 6.569-17.204 18-17.204 31.022 0 20.198 16.374 36.571 36.571 36.571 7.931 0 15.272-2.524 21.264-6.814l-0.11 0.075zM56.832 441.856l82.432-54.857 161.792 194.121c6.758 8.464 17.075 13.84 28.649 13.84 20.198 0 36.571-16.374 36.571-36.571 0-9.242-3.428-17.683-9.082-24.121l0.036 0.041-182.857-219.429c-6.755-8.059-16.826-13.148-28.086-13.148-7.55 0-14.567 2.288-20.393 6.209l0.131-0.083-109.714 73.143c-10.398 6.569-17.204 18-17.204 31.022 0 20.198 16.374 36.571 36.571 36.571 7.931 0 15.272-2.524 21.264-6.814l-0.11 0.075zM56.832 76.142l82.432-54.857 161.792 194.121c6.738 7.674 16.569 12.491 27.525 12.491 20.198 0 36.571-16.374 36.571-36.571 0-8.625-2.985-16.552-7.979-22.805l0.057 0.073-182.857-219.429c-6.755-8.059-16.826-13.148-28.086-13.148-7.55 0-14.567 2.288-20.393 6.209l0.131-0.083-109.714 73.143c-9.378 6.709-15.418 17.566-15.418 29.833 0 20.198 16.374 36.571 36.571 36.571 7.176 0 13.87-2.067 19.518-5.638l-0.15 0.089z" />
<glyph unicode="&#xe917;" glyph-name="map-3-d" d="M418.816 312.832c0-32.512-4.608-59.699-13.926-81.51-8.969-21.466-22.832-39.358-40.257-52.876l-0.293-0.219c-17.664-13.517-39.322-23.142-64.922-28.826-25.6-5.734-54.682-8.602-87.296-8.602-16.282 0-32.768 0.87-49.408 2.56-20.306 2.003-36.385 4.065-52.335 6.518l5.385-0.681c-14.592 2.202-27.597 4.454-38.963 6.81-11.544 2.244-20.163 4.265-28.682 6.535l3.082-0.699v55.040c6.963-1.024 16.486-2.304 28.518-3.738s25.242-2.867 39.731-4.25c14.49-1.434 29.696-2.611 45.568-3.533s31.334-1.382 46.336-1.382c22.272 0 41.779 1.434 58.573 4.301s30.822 8.346 42.086 16.384c11.264 8.090 19.661 19.2 25.19 33.382 5.581 14.131 8.346 32.41 8.346 54.784v19.917c0 13.261-0.973 25.702-2.918 37.427-1.827 11.718-6.492 22.107-13.268 30.762l0.109-0.145c-6.861 8.704-16.896 15.565-30.054 20.48-13.21 4.966-30.925 7.424-53.146 7.424h-170.65v61.235h170.65c22.221 0 39.936 2.662 53.146 7.987 13.158 5.325 23.194 12.544 30.054 21.658s11.264 19.661 13.158 31.59c1.946 11.981 2.918 24.576 2.918 37.888 0 20.224-2.15 37.018-6.4 50.278-3.949 12.883-11.542 23.673-21.568 31.485l-0.14 0.105c-10.24 7.834-23.962 13.312-41.318 16.384-18.006 3.024-38.752 4.752-59.901 4.752-1.981 0-3.959-0.015-5.933-0.045l0.298 0.004c-0.143 0-0.313 0-0.483 0-29.787 0-59.258-1.357-88.352-4.013l3.741 0.276c-13.619-1.178-26.522-2.406-38.81-3.686l-33.178-3.533v56.576l19.814 3.738c23.294 4.399 53.289 8.474 83.666 11.228l3.989 0.292c17.562 1.536 34.611 2.304 51.2 2.304 34.867 0 65.229-2.662 91.136-7.987 25.805-5.325 47.309-14.336 64.358-27.136 17.050-12.749 29.85-29.747 38.4-51.098 8.499-21.299 12.8-47.974 12.8-79.974 0-13.261-1.331-26.163-3.891-38.81-2.56-12.595-6.707-24.576-12.39-35.84-12.059-23.924-31.084-42.85-54.39-54.468l-0.701-0.316c13.158-6.554 24.32-14.336 33.331-23.296 9.062-8.96 16.384-18.944 21.914-29.798 5.581-10.957 9.626-22.63 12.237-35.123 2.56-12.493 3.891-25.344 3.891-38.605v-19.917zM548.506 152.115v593.715h165.222c45.773 0 84.992-5.837 117.76-17.562 32.666-11.674 59.494-28.314 80.384-49.92 20.992-21.606 36.352-47.616 46.182-78.234 9.83-30.515 14.746-64.512 14.746-101.99v-96.768c0.016-1.251 0.025-2.73 0.025-4.21 0-35.029-5.040-68.881-14.434-100.871l0.636 2.527c-9.216-30.72-24.064-56.883-44.595-78.643-20.531-21.709-47.258-38.451-80.077-50.278s-73.062-17.766-120.627-17.766h-165.222zM898.714 498.125c0 33.792-3.994 62.31-12.032 85.453-7.342 22.277-19.766 41.192-35.952 56.082l-0.093 0.085c-16.517 14.382-36.588 25.13-58.702 30.761l-0.997 0.215c-23.808 6.4-51.61 9.574-83.405 9.574h-86.118v-463.411h86.118c31.795 0 59.597 3.226 83.405 9.728 23.183 6.021 43.262 17.050 59.832 31.913l-0.133-0.117c16.252 15.332 28.668 34.553 35.773 56.184l0.272 0.956c8.038 23.398 12.032 52.019 12.032 85.862v96.717z" />
<glyph unicode="&#xe918;" glyph-name="map" d="M665.6 901.376l-307.2-88.32v-819.558l307.2 88.269v819.61zM716.8 900.454v-818.893l256-79.206v805.939c0 8.346-0.102 11.315-0.307 12.749-3.134 1.315-7.135 2.695-11.231 3.851l-0.801 0.193-243.661 75.366zM307.2 813.363l-256 79.206v-760.218c0-7.885 0.102-10.752 0.307-12.134 1.126-0.768 3.686-2.048 10.752-5.325l244.941-113.664v812.134zM66.253 941.773l266.547-82.432 334.643 96.051c5.059 1.723 11.104 3.187 17.321 4.124l0.599 0.074c1.639 0.219 3.535 0.344 5.459 0.344 2.193 0 4.347-0.162 6.453-0.476l-0.238 0.029c3.994-0.563 7.475-1.382 17.818-4.608l260.659-80.64c18.227-5.632 24.371-9.062 30.464-14.080 5.91-4.87 10.541-11.080 13.456-18.176l0.112-0.308c2.97-7.322 4.454-14.285 4.454-33.434v-805.888c0-0.033 0-0.071 0-0.11 0-28.362-22.992-51.354-51.354-51.354-5.315 0-10.441 0.807-15.263 2.306l0.364-0.097-266.547 82.432-330.342-94.874c-6.039-2.131-13.096-3.753-20.398-4.568l-0.441-0.040c-1.012-0.083-2.191-0.13-3.381-0.13-3.707 0-7.307 0.458-10.747 1.321l0.304-0.064c-7.59 2.041-14.192 4.663-20.398 7.936l0.532-0.256-265.472 123.341c-15.821 7.322-20.992 11.008-26.112 16.026-4.912 4.81-8.744 10.702-11.112 17.292l-0.1 0.32c-2.406 6.707-3.533 13.005-3.533 30.515v760.218c0 0.002 0 0.005 0 0.007 0 28.362 22.992 51.354 51.354 51.354 5.315 0 10.441-0.807 15.263-2.306l-0.364 0.097z" />
<glyph unicode="&#xe919;" glyph-name="minus" d="M230.4 473.6h614.4c14.138 0 25.6-11.462 25.6-25.6s-11.462-25.6-25.6-25.6v0h-614.4c-14.138 0-25.6 11.462-25.6 25.6s11.462 25.6 25.6 25.6v0z" />
<glyph unicode="&#xe91a;" glyph-name="move" d="M966.042 464.282l-138.24 138.24c-4.103 3.831-9.63 6.184-15.707 6.184-12.725 0-23.040-10.315-23.040-23.040 0-6.076 2.352-11.604 6.196-15.72l-0.012 0.013 98.867-98.918h-359.066v359.066l98.918-98.867c4.103-3.831 9.63-6.184 15.707-6.184 12.725 0 23.040 10.315 23.040 23.040 0 6.076-2.352 11.604-6.196 15.72l0.012-0.013-138.24 138.24c-4.168 4.163-9.924 6.738-16.282 6.738s-12.113-2.575-16.282-6.738v0l-138.24-138.24c-3.831-4.103-6.184-9.63-6.184-15.707 0-12.725 10.315-23.040 23.040-23.040 6.076 0 11.604 2.352 15.72 6.196l-0.013-0.012 98.918 98.867v-359.066h-359.066l98.867 98.918c3.831 4.103 6.184 9.63 6.184 15.707 0 12.725-10.315 23.040-23.040 23.040-6.076 0-11.604-2.352-15.72-6.196l0.013 0.012-138.24-138.24c-4.163-4.168-6.738-9.924-6.738-16.282s2.575-12.113 6.738-16.282v0l138.24-138.24c4.103-3.831 9.63-6.184 15.707-6.184 12.725 0 23.040 10.315 23.040 23.040 0 6.076-2.352 11.604-6.196 15.72l0.012-0.013-98.867 98.918h359.066v-359.066l-98.918 98.867c-4.103 3.831-9.63 6.184-15.707 6.184-12.725 0-23.040-10.315-23.040-23.040 0-6.076 2.352-11.604 6.196-15.72l-0.012 0.013 138.24-138.24c4.168-4.163 9.924-6.738 16.282-6.738s12.113 2.575 16.282 6.738v0l138.24 138.24c3.831 4.103 6.184 9.63 6.184 15.707 0 12.725-10.315 23.040-23.040 23.040-6.076 0-11.604-2.352-15.72-6.196l0.013 0.012-98.918-98.867v359.066h359.066l-98.867-98.918c-3.831-4.103-6.184-9.63-6.184-15.707 0-12.725 10.315-23.040 23.040-23.040 6.076 0 11.604 2.352 15.72 6.196l-0.013-0.012 138.24 138.24c4.163 4.168 6.738 9.924 6.738 16.282s-2.575 12.113-6.738 16.282v0z" />
<glyph unicode="&#xe91b;" glyph-name="multiple" d="M665.6 704h22.323c45.67 0 62.208-4.762 78.848-13.67 16.742-8.909 29.85-22.016 38.758-38.707s13.67-33.28 13.67-78.848v-22.374h22.323c45.67 0 62.208-4.762 78.848-13.67 16.742-8.909 29.85-22.016 38.758-38.707s13.67-33.28 13.67-78.848v-249.498c0-45.67-4.762-62.208-13.67-78.848-8.909-16.742-22.016-29.85-38.707-38.758s-33.28-13.67-78.848-13.67h-351.949c-45.67 0-62.208 4.762-78.848 13.67-16.593 8.886-29.852 22.128-38.515 38.212l-0.244 0.495c-8.909 16.691-13.67 33.28-13.67 78.848v22.374h-22.323c-45.67 0-62.208 4.762-78.848 13.67-16.593 8.886-29.852 22.128-38.515 38.212l-0.244 0.495c-8.909 16.691-13.67 33.28-13.67 78.848v22.374h-22.323c-45.67 0-62.208 4.762-78.848 13.67-16.593 8.886-29.852 22.128-38.515 38.212l-0.244 0.495c-8.858 16.742-13.619 33.28-13.619 78.848v249.549c0 45.67 4.762 62.208 13.67 78.848 8.909 16.742 22.016 29.85 38.707 38.758s33.28 13.67 78.848 13.67h351.898c45.67 0 62.208-4.762 78.848-13.67 16.742-8.909 29.85-22.016 38.758-38.707s13.67-33.28 13.67-78.848v-22.426zM256 345.6v-22.323c0-33.894 1.997-44.237 7.629-54.784 4.042-7.59 10.111-13.642 17.488-17.554l0.227-0.11c10.496-5.632 20.838-7.629 54.733-7.629h351.846c33.894 0 44.237 1.997 54.784 7.629 7.59 4.042 13.642 10.111 17.554 17.488l0.11 0.227c5.632 10.496 7.629 20.838 7.629 54.733v249.446c0 33.894-1.997 44.237-7.629 54.784-4.042 7.59-10.111 13.642-17.488 17.554l-0.227 0.11c-10.496 5.632-20.838 7.629-54.733 7.629h-22.323v-175.923c0-45.67-4.762-62.208-13.67-78.848-8.909-16.742-22.016-29.85-38.707-38.758s-33.28-13.67-78.848-13.67h-278.374zM409.6 192v-22.323c0-33.894 1.997-44.237 7.629-54.784 4.042-7.59 10.111-13.642 17.488-17.554l0.227-0.11c10.496-5.632 20.838-7.629 54.733-7.629h351.846c33.894 0 44.237 1.997 54.784 7.629 7.59 4.042 13.642 10.111 17.554 17.488l0.11 0.227c5.632 10.496 7.629 20.838 7.629 54.733v249.446c0 33.894-1.997 44.237-7.629 54.784-4.042 7.59-10.111 13.642-17.488 17.554l-0.227 0.11c-10.496 5.632-20.838 7.629-54.733 7.629h-22.323v-175.923c0-45.67-4.762-62.208-13.67-78.848-8.909-16.742-22.016-29.85-38.707-38.758s-33.28-13.67-78.848-13.67h-278.374zM102.4 476.877c0-33.894 1.997-44.237 7.629-54.784 4.042-7.59 10.111-13.642 17.488-17.554l0.227-0.11c10.496-5.632 20.838-7.629 54.733-7.629h351.846c33.894 0 44.237 1.997 54.784 7.629 7.59 4.042 13.642 10.111 17.554 17.488l0.11 0.227c5.632 10.496 7.629 20.838 7.629 54.733v249.446c0 33.894-1.997 44.237-7.629 54.784-4.042 7.59-10.111 13.642-17.488 17.554l-0.227 0.11c-10.496 5.632-20.838 7.629-54.733 7.629h-351.846c-33.894 0-44.237-1.997-54.784-7.629-7.59-4.042-13.642-10.111-17.554-17.488l-0.11-0.227c-5.632-10.496-7.629-20.838-7.629-54.733v-249.446z" />
<glyph unicode="&#xe91c;" glyph-name="photo" d="M972.8-64h-256v51.2h256v256h51.2v-307.2h-51.2zM972.8 960h51.2v-307.2h-51.2v256h-256v51.2h256zM51.2-12.8h256v-51.2h-307.2v307.2h51.2v-256zM51.2 960h256v-51.2h-256v-256h-51.2v307.2h51.2z" />
<glyph unicode="&#xe91d;" glyph-name="plus" d="M512 448h-281.6c-14.138 0-25.6-11.462-25.6-25.6s11.462-25.6 25.6-25.6v0h281.6v-281.6c0-14.138 11.462-25.6 25.6-25.6s25.6 11.462 25.6 25.6v0 281.6h281.6c14.138 0 25.6 11.462 25.6 25.6s-11.462 25.6-25.6 25.6v0h-281.6v281.6c0 14.138-11.462 25.6-25.6 25.6s-25.6-11.462-25.6-25.6v0-281.6z" />
<glyph unicode="&#xe91e;" horiz-adv-x="2345" d="M54.747 723.783l1.315-0.775c8.575-5.051 11.431-16.098 6.378-24.672-11.355-19.267-20.504-39.746-27.242-61.072-2.998-9.488-13.12-14.75-22.609-11.752s-14.75 13.12-11.752 22.609c5.72 18.103 12.985 35.657 21.696 52.484l-3.961 2.24c-8.773 4.961-11.771 16.153-6.652 24.835 8.173 13.862 17.289 27.185 27.282 39.894l-27.92 29.46c-6.366 6.717-6.608 17.164-0.56 24.169 14.299 16.561 29.885 31.831 46.606 45.62 7.628 6.291 18.901 5.259 25.261-2.312l50.756-60.431c6.4-7.62 5.411-18.985-2.209-25.385s-18.985-5.411-25.385 2.209l-38.973 46.402c-6.15-5.632-12.11-11.498-17.871-17.585l26.359-27.812c3.596-3.153 5.995-7.792 5.995-13.471 0-5.332-2.104-9.744-5.328-12.881-8.35-9.788-16.096-20.015-23.199-30.634l2.014-1.139zM163.445 827.852l-1.207-0.667c-20.853-11.516-38.341 19.529-17.685 31.396 18.784 10.791 38.517 19.909 59.006 27.248 9.302 3.332 19.552-1.449 22.977-10.718l1.653-4.473c7.773 2.34 15.616 4.402 23.525 6.181l-8.494 56.843c-1.484 9.93 5.435 19.158 15.384 20.515 1.359 0.185 3.78 0.503 7.030 0.91 5.398 0.675 11.153 1.351 17.034 1.981 5.51 0.591 10.86 1.114 15.958 1.549 10.4 0.889 19.315 1.382 26.432 1.382 9.49 0 17.353-7.36 17.978-16.829l2.39-36.157c15.728-0.7 31.267-2.379 46.572-5.024 8.639-1.493 14.95-8.987 14.95-17.754 0-10.023-8.067-18.090-18.018-18.090-1.604 0-3.158 0.209-4.638 0.603-18.231 3.059-36.843 4.605-55.757 4.605-9.49 0-17.353 7.36-17.978 16.829l-2.317 35.048c-2.092-0.151-4.276-0.324-6.546-0.518-4.821-0.412-9.917-0.91-15.182-1.475-1.658-0.178-3.306-0.359-4.939-0.544l7.939-53.548 0.072-0.288c2.544-10.176-4.109-20.366-14.449-22.131-17.597-3.003-34.854-7.552-51.751-13.599-9.301-3.329-19.548 1.453-22.972 10.72l-1.327 3.591c-11.906-5.003-23.491-10.691-34.706-17.036-0.303-0.191-0.613-0.375-0.931-0.551zM477.354 836.571c-11.587 5.772-23.608 10.9-35.964 15.341-9.364 3.366-14.227 13.686-10.861 23.050s13.686 14.227 23.050 10.861c20.136-7.238 39.495-16.134 57.739-26.552 8.714-4.976 11.684-16.112 6.605-24.766l-2.217-3.776c6.621-4.253 13.081-8.717 19.362-13.384l3.324 3.905c8.422 9.893 20.55 7.551 27.204 0.31 11.274-9.431 21.974-19.564 32.051-30.34l21.473 15.051c7.608 5.333 18.024 4.006 24.052-3.065 14.16-16.608 26.868-34.348 37.942-52.992 5.052-8.506 2.3-19.495-6.165-24.617l-40.595-24.56c9.345-18.008 17.045-36.881 22.959-56.352 2.892-9.521-2.482-19.584-12.003-22.477s-19.584 2.482-22.477 12.003c-6.814 22.433-16.29 43.982-28.157 64.126-5.009 8.503-2.246 19.453 6.197 24.561l39.733 24.039c-4.595 6.892-9.444 13.631-14.537 20.2l-21.33-14.95c-10.81-7.577-22.083-1.998-26.585 6.887-7.661 8.716-15.753 16.999-24.246 24.812l-2.618-3.076c-6.387-7.503-17.617-8.484-25.208-2.201-13.575 11.236-28.262 21.377-43.828 30.271-8.591 4.909-11.616 15.829-6.775 24.459l0.589 1.043 1.283 2.187zM324.21 49.981l-0.769 0.011c-0.092 0.003-0.184 0.005-0.275 0.008-70.985-0.369-141.862-27.946-196.052-82.73-10.905-11.024-28.682-11.121-39.707-0.216s-11.121 28.682-0.216 39.707c48.955 49.491 109.284 80.5 172.491 93.028-4.551 5.687-9.414 11.844-14.548 18.438-27.976 35.933-55.649 74.31-81.321 113.854-73.734 113.577-117.854 215.412-117.854 297.931 0 155.539 124.891 282.216 278.63 282.216 153.125 0 277.984-126.574 278.692-281.982 0.365-82.652-43.85-184.58-117.99-298.234-25.808-39.564-53.648-77.958-81.797-113.894-5.085-6.492-9.929-12.586-14.47-18.227 63.392-12.462 123.908-43.506 172.983-93.133 10.903-11.026 10.804-28.803-0.222-39.707s-28.803-10.804-39.707 0.222c-54.278 54.888-125.315 82.465-196.438 82.728-0.476-0.014-0.953-0.021-1.431-0.021zM359.287 152.746c27.21 34.737 54.118 71.847 78.972 109.947 68.543 105.074 109.17 198.731 108.867 267.301-0.569 124.718-100.556 226.080-222.537 226.080-122.546 0-222.475-101.358-222.475-226.061 0-68.609 40.577-162.267 108.799-267.353 24.729-38.091 51.482-75.193 78.531-109.934 14.107-18.119 26.032-32.735 34.802-43.102 8.709 10.223 20.871 25.032 35.042 43.123zM438.79 530.859c0-63.447-51.123-115.138-114.202-115.138-63.064 0-114.184 51.695-114.184 115.138 0 63.44 51.116 115.102 114.184 115.102 63.082 0 114.202-51.659 114.202-115.102zM382.635 530.859c0 32.561-26.111 58.948-58.047 58.948-31.92 0-58.029-26.388-58.029-58.948 0-32.57 26.119-58.984 58.029-58.984 31.925 0 58.047 26.412 58.047 58.984z" />
<glyph unicode="&#xe91f;" horiz-adv-x="2345" d="M821.946 408.744v130.033c0 7.639 5.027 13.819 11.261 13.819h85.944c5.982 0 10.793-5.946 10.793-13.261s-4.811-13.261-10.793-13.261h-74.683v-41.134h49.656c5.982 0 10.793-5.928 10.793-13.243 0-7.351-4.811-13.297-10.793-13.297h-49.656v-36.918h71.332c5.91 0 10.811-6.018 10.811-13.297 0-7.333-4.829-13.279-10.811-13.279h-82.593c-6.234 0-11.261 6.198-11.261 13.838z" />
<glyph unicode="&#xe920;" horiz-adv-x="2345" d="M1037.77 398.258c-7.639 0-13.874 6.198-13.874 13.838v126.682c0 7.603 6.306 13.819 13.874 13.819 7.639 0 13.874-6.18 13.874-13.819v-126.682c0-7.639-6.234-13.838-13.874-13.838z" />
<glyph unicode="&#xe921;" horiz-adv-x="2345" d="M1337.172 411.525c0-7.315-5.946-13.261-13.261-13.261h-69.854c-7.639 0-13.838 6.18-13.838 13.819v126.7c0 7.621 6.198 13.819 13.838 13.819s13.819-6.198 13.819-13.819v-113.997h56.035c7.315 0 13.261-5.91 13.261-13.261z" />
<glyph unicode="&#xe922;" horiz-adv-x="2345" d="M1486.486 399.278c-7.009-2.991-15.171 0.324-18.162 7.351l-11.856 27.981h-60.251l-11.892-28.017c-2.955-6.955-11.153-10.306-18.162-7.315-7.027 2.955-10.306 11.081-7.315 18.126l54.755 129.042c2.18 5.099 7.189 8.45 12.738 8.45 5.567 0 10.594-3.351 12.774-8.45l54.719-129.006c2.991-7.045-0.306-15.171-7.351-18.162v0zM1445.172 461.186l-18.828 44.341-18.828-44.341h37.657z" />
<glyph unicode="&#xe923;" horiz-adv-x="2345" d="M1200.316 442.634c-0.595-13.297-5.91-24.558-15.91-33.747-10.126-9.225-22.126-13.838-36.107-13.838-12.108 0-22.936 2.613-32.504 7.82-11.549 6.234-18.828 15.315-21.963 27.171-0.883 3.477-0.468 6.793 1.333 9.928 1.874 3.117 4.54 5.135 8.018 6.018 3.495 0.865 6.793 0.45 9.928-1.351 3.099-1.856 5.099-4.54 6.018-8.018 1.297-4.955 4.973-8.865 10.919-11.675 5.333-2.468 11.387-3.712 18.252-3.712 6.973 0 12.955 2.198 17.909 6.594 5.081 4.288 7.748 9.639 8.072 16.036 0.126 3.874-1.279 7.333-4.126 10.36-4.649 4.883-12.342 7.423-23.189 7.585h-0.559c-18.198 0.288-32.125 5.531-41.783 15.711-7.946 8.432-11.639 18.288-11.153 29.513 0.613 13.369 5.91 24.63 15.946 33.855s22.072 13.838 36.107 13.838c12.108 0 22.936-2.613 32.522-7.82 11.495-6.234 18.828-15.297 21.909-27.171 0.919-3.513 0.432-6.793-1.441-9.91-1.748-3.135-4.396-5.153-7.874-6.018-3.477-0.883-6.793-0.468-9.928 1.333-3.135 1.856-5.135 4.504-5.982 8.018-1.369 4.955-5.027 8.865-11.045 11.693-5.279 2.45-11.333 3.694-18.162 3.694-7.009 0-13.027-2.198-18.054-6.594-4.991-4.396-7.603-9.748-7.91-16.036-0.144-3.874 1.225-7.351 4.144-10.486 4.576-4.829 12.324-7.297 23.153-7.459h0.523c18.234-0.288 32.143-5.567 41.819-15.801 7.946-8.414 11.639-18.234 11.117-29.531z" />
<glyph unicode="&#xe924;" horiz-adv-x="2345" d="M1624.364 442.634c-0.595-13.297-5.91-24.558-15.946-33.747-10.090-9.225-22.126-13.838-36.107-13.838-12.108 0-22.936 2.613-32.504 7.82-11.513 6.234-18.828 15.315-21.963 27.171-0.883 3.477-0.468 6.793 1.369 9.928 1.838 3.117 4.504 5.135 7.982 6.018 3.495 0.865 6.793 0.45 9.928-1.351 3.135-1.856 5.099-4.54 6.018-8.018 1.333-4.955 4.973-8.865 10.919-11.675 5.351-2.468 11.423-3.712 18.252-3.712 7.009 0 12.991 2.198 17.946 6.594 5.045 4.288 7.748 9.639 8.036 16.036 0.144 3.874-1.243 7.333-4.126 10.36-4.613 4.883-12.342 7.423-23.153 7.585h-0.559c-18.198 0.288-32.125 5.531-41.819 15.711-7.91 8.432-11.639 18.288-11.117 29.513 0.613 13.369 5.874 24.63 15.946 33.855 10 9.225 22.036 13.838 36.071 13.838 12.108 0 22.936-2.613 32.522-7.82 11.495-6.234 18.864-15.297 21.945-27.171 0.883-3.513 0.432-6.793-1.441-9.91-1.784-3.135-4.432-5.153-7.91-6.018-3.477-0.883-6.793-0.468-9.892 1.333-3.135 1.856-5.135 4.504-6.018 8.018-1.369 4.955-5.027 8.865-11.045 11.693-5.279 2.45-11.333 3.694-18.162 3.694-6.973 0-12.991-2.198-18.054-6.594-4.955-4.396-7.603-9.748-7.91-16.036-0.144-3.874 1.225-7.351 4.144-10.486 4.613-4.829 12.324-7.297 23.153-7.459h0.559c18.198-0.288 32.143-5.567 41.783-15.801 7.91-8.414 11.639-18.234 11.153-29.531z" />
<glyph unicode="&#xe925;" horiz-adv-x="4017" d="M97.302 668.55h-41.776l33.729-25.948-12.876-42.078 33.729 26.018 33.519-26.018-12.876 42.078 33.659 25.948h-41.566l-12.736 42.078z" />
<glyph unicode="&#xe926;" horiz-adv-x="4017" d="M63.608 475.035h-41.636l33.729-25.948-12.806-42.078 33.659 26.018 33.449-26.018-12.736 42.078 33.729 25.948h-41.636l-12.806 42.007z" />
<glyph unicode="&#xe927;" horiz-adv-x="4017" d="M100.892 266.688h-41.636l33.729-25.948-12.876-42.148 33.729 26.088 33.519-26.088-12.876 42.148 33.799 25.948h-41.636l-12.806 42.007z" />
<glyph unicode="&#xe928;" horiz-adv-x="4017" d="M592.986 576.652c0 0-1.679 0-2.659 0.631-1.050 0.561-3.919 3.296-3.919 3.296l-2.169 1.753-2.099 2.945c0 0-2.449 4.208-1.4 7.434 1.19 3.156 3.079 4.348 4.828 5.26 1.679 0.912 5.318 2.104 5.318 2.104s2.869 1.403 3.779 1.543c0.98 0.070 4.409 1.052 4.409 1.052s0.98 0.561 1.959 0.912c0.98 0.421 2.239 0.421 3.009 0.701 0.84 0.14 2.659 0.631 3.779 0.771 1.819 0.14 4.688-0.351 5.598-0.351 0.98 0 4.269-0.14 5.528-0.14 1.33 0 6.088 0.351 7.417 0.351s2.309 0.21 3.849 0c1.539-0.21 4.129-1.052 4.968-1.473 0.77-0.351 5.388-1.964 7.068-2.595 1.749-0.561 5.948-1.473 7.767-2.314 2.029-0.912 3.149-2.525 4.059-3.857 1.050-1.332 1.19-2.665 1.609-3.717 0.28-0.982 0.28-2.945 0-3.927-0.42-0.842-1.819-2.875-1.819-2.875l-2.099-3.577-2.589-2.244c0 0-2.029-1.823-3.499-1.683s-17.004 3.016-26.871 3.016c-10.007 0-25.821-3.016-25.821-3.016z" />
<glyph unicode="&#xe929;" horiz-adv-x="4017" d="M621.138 610.139v-2.104h-4.758v2.104h1.539v4.558h-2.099v2.104h2.099v2.034h1.959v-2.034h2.169v-2.104h-2.169v-4.558z" />
<glyph unicode="&#xe92a;" horiz-adv-x="4017" d="M623.328 610.139v-2.104h-8.537v2.104h3.149v4.558h-2.169v2.104h2.169v2.034h2.029v-2.034h2.029v-2.104h-2.029v-4.558z" />
<glyph unicode="&#xe92b;" horiz-adv-x="4017" d="M618.954 577.269h-16.165l-0.49 4.067-0.7 4.278-0.84 5.47c-4.409 6.171-8.537 10.239-9.937 9.327 0.35 1.192 0.63 2.034 1.539 2.595 4.059 2.455 12.176-3.506 18.404-13.184 0.49-0.912 1.050-1.823 1.539-2.665h13.365c0.49 0.842 0.98 1.753 1.609 2.665 6.158 9.678 14.345 15.639 18.334 13.184 0.91-0.561 1.26-1.403 1.539-2.595-1.33 0.912-5.458-3.156-9.937-9.327l-0.84-5.47-0.77-4.278-0.42-4.067h-16.234z" />
<glyph unicode="&#xe92c;" horiz-adv-x="4017" d="M594.966 569.597c-0.63 1.964-1.959 3.857-1.959 3.857 6.508 1.893 15.675 3.296 25.961 3.296 10.147 0 19.313-1.403 25.961-3.296 0 0-0.84-1.403-1.819-3.296-0.49-1.052-1.26-2.875-1.19-2.875-5.948 1.964-13.575 2.945-23.022 2.945-9.517 0-18.544-1.262-23.162-3.086 0.14 0-0.35 1.192-0.77 2.455z" />
<glyph unicode="&#xe92d;" horiz-adv-x="4017" d="M618.954 560.901c8.187 0 17.214 1.332 20.573 2.244 2.239 0.631 3.569 1.683 3.289 2.945-0.14 0.491-0.56 0.982-1.19 1.332-4.898 1.613-13.785 2.805-22.672 2.805-8.957 0-17.844-1.192-22.742-2.805-0.63-0.351-1.050-0.842-1.19-1.332-0.28-1.262 1.050-2.314 3.289-2.945 3.359-0.912 12.456-2.244 20.643-2.244z" />
<glyph unicode="&#xe92e;" horiz-adv-x="4017" d="M645.328 577.269l-2.099 1.823c0 0-1.889-1.192-4.269-0.842-2.379 0.421-3.079 3.436-3.079 3.436s-2.729-2.384-4.898-2.244c-2.169 0.281-3.709 2.244-3.709 2.244s-2.309-1.753-4.409-1.683c-2.169 0.21-4.059 2.945-4.059 2.945s-2.239-2.805-4.199-2.945c-2.169-0.21-3.849 1.753-3.849 1.753s-0.98-1.964-3.639-2.455c-2.659-0.491-4.968 2.244-4.968 2.244s-1.539-2.735-3.289-3.296c-1.819-0.701-4.269 0.982-4.269 0.982s-0.35-0.982-0.56-1.543c-0.35-0.491-1.19-0.631-1.19-0.631l0.63-1.683c6.578 1.893 15.395 3.296 25.471 3.296 10.147 0 19.104-1.403 25.611-3.296l0.77 1.893z" />
<glyph unicode="&#xe92f;" horiz-adv-x="4017" d="M618.954 586.239l0.98-0.070c-0.14-0.421-0.14-0.842-0.14-1.332 0-2.034 1.679-3.717 3.639-3.717 1.819 0 3.149 1.122 3.639 2.595 0.070 0 0.35 1.262 0.49 1.262 0.28 0 0.14-1.403 0.28-1.262 0.21-1.823 1.819-3.226 3.709-3.226 2.099 0 3.709 1.613 3.709 3.717 0 0.21-0.070 0.421-0.070 0.561l1.26 1.122 0.63-1.543c-0.21-0.561-0.35-1.052-0.35-1.753 0-1.893 1.539-3.436 3.569-3.436 1.19 0 2.379 0.561 2.939 1.543l0.7 1.192v-1.403c0-1.192 0.56-2.384 1.749-2.525 0 0 1.26-0.070 3.149 1.332 1.679 1.543 2.729 2.595 2.729 2.595l0.070-1.403c0 0-1.889-3.016-3.289-3.857-0.91-0.631-2.099-1.052-3.219-0.771-1.19 0.14-1.889 0.912-2.309 2.034-0.84-0.561-1.679-0.842-2.729-0.842-2.169 0-3.989 1.332-4.758 3.016-0.98-1.052-2.379-1.683-3.919-1.683-1.749 0-3.219 0.771-4.269 1.964-0.91-0.912-2.239-1.403-3.709-1.403-1.889 0-3.499 0.912-4.478 2.384-0.91-1.473-2.589-2.384-4.478-2.384-1.47 0-2.799 0.491-3.709 1.403-0.98-1.192-2.519-1.964-4.199-1.964-1.609 0-3.009 0.631-3.919 1.683-0.77-1.683-2.659-3.016-4.828-3.016-0.98 0-1.889 0.281-2.659 0.842-0.49-1.122-1.12-1.893-2.379-2.034-1.050-0.281-2.309 0.14-3.149 0.771-1.539 0.842-3.429 3.857-3.429 3.857l0.21 1.403c0 0 1.050-1.052 2.729-2.595 1.749-1.403 3.079-1.332 3.079-1.332 1.12 0.14 1.819 1.332 1.819 2.525l-0.14 1.403 0.7-1.192c0.7-0.982 1.889-1.543 3.079-1.543 2.029 0 3.499 1.543 3.499 3.436 0 0.701-0.070 1.192-0.35 1.753l0.7 1.543 1.19-1.122v-0.561c0-2.104 1.609-3.717 3.639-3.717 1.959 0 3.569 1.403 3.779 3.226 0-0.14 0 1.262 0.14 1.262 0.28 0 0.49-1.262 0.56-1.262 0.49-1.473 1.889-2.595 3.569-2.595 2.029 0 3.779 1.683 3.779 3.717 0 0.491 0 0.912-0.14 1.332l0.91 0.070z" />
<glyph unicode="&#xe930;" horiz-adv-x="4017" d="M618.954 576.652c-10.217 0-19.383-1.332-25.961-3.226-0.42-0.14-0.91 0.14-1.12 0.631-0.14 0.351 0.21 1.052 0.63 1.122 6.648 2.104 16.025 3.296 26.451 3.366 10.356-0.070 19.803-1.262 26.451-3.366 0.42-0.070 0.84-0.771 0.56-1.122-0.14-0.491-0.7-0.771-1.050-0.631-6.648 1.893-15.745 3.226-25.961 3.226z" />
<glyph unicode="&#xe931;" horiz-adv-x="4017" d="M619.024 572.269h-3.289c-0.7 0-1.050 0.561-1.050 1.262 0 0.351 0.35 0.912 1.050 0.912h6.648c0.63 0 1.050-0.561 1.050-0.912 0-0.701-0.42-1.262-1.050-1.262h-3.359z" />
<glyph unicode="&#xe932;" horiz-adv-x="4017" d="M602.622 571.175l-2.309-0.351c-0.56-0.14-1.19 0.21-1.26 0.842-0.14 0.631 0.28 1.122 0.98 1.192l2.239 0.421 2.449 0.351c0.63 0.14 1.12-0.351 1.26-0.912 0.14-0.491-0.42-1.192-0.91-1.262l-2.449-0.281z" />
<glyph unicode="&#xe933;" horiz-adv-x="4017" d="M635.217 571.175l2.309-0.351c0.63-0.14 1.26 0.21 1.26 0.842 0.14 0.631-0.28 1.122-0.84 1.192l-2.379 0.421-2.379 0.351c-0.63 0.14-1.19-0.351-1.33-0.912-0.14-0.491 0.42-1.192 0.98-1.262l2.379-0.281z" />
<glyph unicode="&#xe934;" horiz-adv-x="4017" d="M618.954 594.598l-2.939-1.823 2.169-4.909 0.77-0.491 0.63 0.491 2.239 4.909z" />
<glyph unicode="&#xe935;" horiz-adv-x="4017" d="M612.53 587.27l1.33-2.104 4.548 1.473 0.56 0.771-0.56 0.701-4.548 1.262z" />
<glyph unicode="&#xe936;" horiz-adv-x="4017" d="M625.308 587.27l-1.33-2.104-4.548 1.473-0.49 0.771 0.49 0.701 4.548 1.262z" />
<glyph unicode="&#xe937;" horiz-adv-x="4017" d="M600.026 592.403l-2.169-2.244 2.799-3.997 0.84-0.421 0.49 0.771 0.98 4.839z" />
<glyph unicode="&#xe938;" horiz-adv-x="4017" d="M595.309 584.458l1.609-1.613 4.199 2.174 0.42 0.842-0.7 0.491-4.618 0.421z" />
<glyph unicode="&#xe939;" horiz-adv-x="4017" d="M607.744 586.996l-0.98-2.174-4.618 0.491-0.63 0.421 0.35 0.912 4.129 2.244z" />
<glyph unicode="&#xe93a;" horiz-adv-x="4017" d="M590.796 583.777l-0.42-2.314-4.758-0.491-0.63 0.351 0.070 0.982 3.639 2.945z" />
<glyph unicode="&#xe93b;" horiz-adv-x="4017" d="M637.813 592.403l2.309-2.244-2.939-3.997-0.77-0.421-0.56 0.771-0.98 4.839z" />
<glyph unicode="&#xe93c;" horiz-adv-x="4017" d="M642.599 584.458l-1.679-1.613-4.129 2.174-0.35 0.842 0.63 0.491 4.688 0.421z" />
<glyph unicode="&#xe93d;" horiz-adv-x="4017" d="M630.157 586.996l0.91-2.174 4.688 0.491 0.56 0.421-0.21 0.912-4.269 2.244z" />
<glyph unicode="&#xe93e;" horiz-adv-x="4017" d="M646.49 583.777l0.42-2.314 4.688-0.491 0.77 0.351-0.21 0.982-3.569 2.945z" />
<glyph unicode="&#xe93f;" horiz-adv-x="4017" d="M584.372 581.105c0-0.14-1.4 1.613-2.239 2.455-0.63 0.631-2.169 1.262-2.169 1.262 0 0.21 0.77 0.912 1.889 0.912 0.63 0 1.12-0.21 1.47-0.701l0.14 0.701c0 0 0.84-0.21 1.19-1.122 0.42-1.052 0.14-2.455 0.14-2.455s-0.14-0.842-0.42-1.052z" />
<glyph unicode="&#xe940;" horiz-adv-x="4017" d="M652.851 581.105c0-0.14 1.33 1.613 2.239 2.455 0.63 0.631 2.239 1.262 2.239 1.262 0 0.21-0.84 0.912-1.889 0.912-0.7 0-1.19-0.21-1.47-0.701l-0.14 0.701c0 0-0.84-0.21-1.19-1.122-0.49-1.052-0.14-2.455-0.14-2.455s0.14-0.842 0.35-1.052z" />
<glyph unicode="&#xe941;" horiz-adv-x="4017" d="M589.361 527.274c0.49 0.21 0.84 0.21 1.469 0.21h56.261c0.63 0 1.12-0.14 1.609-0.21-1.959 0.631-3.359 2.455-3.359 4.558 0 2.244 1.539 4.067 3.499 4.769-0.42-0.14-1.12-0.281-1.679-0.281h-56.331c-0.63 0-1.19 0-1.609 0.21l0.28-0.070c1.959-0.701 3.219-2.525 3.219-4.629 0-1.893-1.33-3.927-3.359-4.558z" />
<glyph unicode="&#xe942;" horiz-adv-x="4017" d="M590.796 527.478h56.401c1.819 0 3.359-1.262 3.359-2.735s-1.539-2.665-3.359-2.665h-56.401c-1.889 0-3.499 1.192-3.499 2.665s1.609 2.735 3.499 2.735z" />
<glyph unicode="&#xe943;" horiz-adv-x="4017" d="M590.796 540.97h56.401c1.819 0 3.429-1.052 3.429-2.314s-1.609-2.244-3.429-2.244h-56.401c-1.889 0-3.499 0.982-3.499 2.244s1.609 2.314 3.499 2.314z" />
<glyph unicode="&#xe944;" horiz-adv-x="4017" d="M671.639 194.777c-5.248 0-9.797 1.122-13.226 3.086-3.429 1.753-8.047 2.875-13.086 2.875-5.108 0-9.797-1.122-13.156-2.875-3.499-1.964-8.187-3.086-13.226-3.086-5.248 0-10.007 1.473-13.295 3.086-3.359 1.753-7.907 2.875-12.876 2.875-5.108 0-9.587-0.982-12.946-2.875-3.429-1.823-8.257-3.086-13.435-3.086v-8.556c5.178 0 10.007 1.262 13.435 3.156 3.359 1.823 7.837 2.805 12.946 2.805 4.968 0 9.517-0.982 12.876-2.665 3.289-1.964 8.047-3.296 13.295-3.296 5.038 0 9.727 1.262 13.226 3.156 3.359 1.823 8.047 2.805 13.156 2.805 5.038 0 9.657-0.982 13.086-2.805 3.429-1.893 7.977-3.156 13.156-3.156l0.070 8.556z" />
<glyph unicode="&#xe945;" horiz-adv-x="4017" d="M671.639 186.214c-5.248 0-9.797 1.332-13.226 3.156s-8.047 2.805-13.086 2.805c-5.108 0-9.797-0.982-13.156-2.805-3.499-1.823-8.187-3.156-13.226-3.156-5.248 0-10.007 1.473-13.295 3.296-3.359 1.683-7.907 2.665-12.876 2.665-5.108 0-9.587-0.982-12.946-2.805-3.429-1.823-8.257-3.156-13.435-3.156v-8.345c5.178 0 10.007 1.192 13.435 3.086 3.359 1.823 7.837 2.805 12.946 2.805 4.968 0 9.517-1.122 12.876-2.805 3.289-1.893 8.047-3.086 13.295-3.086 5.038 0 9.727 1.052 13.226 2.945 3.359 1.823 8.047 2.945 13.156 2.945 5.038 0 9.657-1.122 13.086-2.945 3.429-1.893 7.977-2.945 13.156-2.945l0.070 8.345z" />
<glyph unicode="&#xe946;" horiz-adv-x="4017" d="M671.639 177.862c-5.248 0-9.797 1.122-13.226 2.945s-8.047 2.945-13.086 2.945c-5.108 0-9.797-1.122-13.156-2.945-3.499-1.823-8.187-2.945-13.226-2.945-5.248 0-10.007 1.262-13.295 3.086-3.359 1.683-7.907 2.805-12.876 2.805-5.108 0-9.587-0.982-12.946-2.805-3.429-1.823-8.257-3.086-13.435-3.086v-8.556c5.178 0 10.007 1.262 13.435 3.086 3.359 1.823 7.837 2.875 12.946 2.875 4.968 0 9.517-1.052 12.876-2.735 3.289-1.964 8.047-3.226 13.295-3.226 5.038 0 9.727 1.262 13.226 3.086 3.359 1.683 8.047 2.875 13.156 2.875 5.038 0 9.657-1.192 13.086-2.875 3.429-1.823 7.977-3.086 13.156-3.086l0.070 8.556z" />
<glyph unicode="&#xe947;" horiz-adv-x="4017" d="M671.569 160.877c-5.248 0-9.727 1.122-13.156 2.945-3.429 1.893-8.047 3.016-13.086 3.016-5.108 0-9.797-1.122-13.156-3.016-3.499-1.823-8.187-2.945-13.226-2.945-5.248 0-10.007 1.262-13.295 3.086-3.359 1.753-7.907 2.875-12.946 2.875s-9.517-1.122-12.946-2.875c-3.359-1.964-8.187-3.086-13.365-3.086v8.416c5.178 0 10.007 1.262 13.365 3.086 3.429 1.823 7.907 2.875 12.946 2.875s9.587-1.052 12.946-2.735c3.289-1.964 8.047-3.226 13.295-3.226 5.038 0 9.727 1.262 13.226 3.086 3.359 1.683 8.047 2.875 13.156 2.875 5.038 0 9.657-1.192 13.086-2.875 3.429-1.823 7.977-3.086 13.226-3.086l-0.070-8.416z" />
<glyph unicode="&#xe948;" horiz-adv-x="4017" d="M671.569 152.384c-5.248 0-9.727 1.192-13.156 3.086-3.429 1.683-8.047 2.805-13.086 2.805-5.108 0-9.797-1.122-13.156-2.945-3.499-1.753-8.187-2.945-13.226-2.945-5.248 0-10.007 1.262-13.295 3.156-3.359 1.613-7.907 2.735-12.946 2.735s-9.517-0.982-12.946-2.805c-3.359-1.823-8.187-3.086-13.365-3.086v8.345c5.178 0 10.007 1.262 13.365 3.226 3.429 1.753 7.907 2.875 12.946 2.875s9.587-1.122 12.946-2.875c3.289-1.823 8.047-3.086 13.295-3.086 5.038 0 9.727 1.122 13.226 2.945 3.359 1.893 8.047 3.016 13.156 3.016 5.038 0 9.657-1.122 13.086-3.016 3.429-1.823 7.977-2.945 13.226-2.945l-0.070-8.486z" />
<glyph unicode="&#xe949;" horiz-adv-x="4017" d="M589.431 229.702c0.070-0.771 0.35-1.403 0.35-2.244 0-5.119-4.269-9.257-9.517-9.257h77.604c-5.248 0-9.517 4.138-9.517 9.257 0 0.842 0.070 1.473 0.28 2.244-0.42-0.281-0.91-0.281-1.47-0.281h-56.331c-0.49 0-1.050 0.14-1.4 0.281z" />
<glyph unicode="&#xe94a;" horiz-adv-x="4017" d="M590.796 234.842h56.401c1.819 0 3.359-1.262 3.359-2.665 0-1.543-1.539-2.735-3.359-2.735h-56.401c-1.889 0-3.499 1.192-3.499 2.735 0 1.403 1.609 2.665 3.499 2.665z" />
<glyph unicode="&#xe94b;" horiz-adv-x="4017" d="M574.33 307.643c-7.627-4.558-12.876-9.327-11.966-11.641 0.42-2.104 2.869-3.857 6.298-6.171 5.528-3.997 8.747-11.010 6.158-14.377 4.548 3.857 7.417 9.538 7.417 15.849 0 6.522-2.939 12.623-7.907 16.34z" />
<glyph unicode="&#xe94c;" horiz-adv-x="4017" d="M702.457 413.861c-11.966 5.19-32.329 8.977-55.701 9.678-8.047 0-16.934-0.701-26.311-2.384-32.819-5.821-57.8-19.356-55.911-30.506 0-0.281 0.14-0.701 0.14-0.982 0 0-12.246 28.963-12.386 30.015-2.309 12.483 25.541 27.631 61.929 33.943 11.476 2.034 22.672 2.665 32.189 2.595 23.372 0 43.735-2.945 55.911-7.784l0.14-34.574z" />
<glyph unicode="&#xe94d;" horiz-adv-x="4017" d="M557.312 324.488c-1.469 4.558 13.365 13.675 34.288 21.74 9.657 3.436 17.564 7.293 27.431 11.852 29.18 13.395 50.593 28.753 47.864 34.433l-0.21 0.631c1.609-1.403 3.989-29.104 3.989-29.104 2.659-5.19-17.074-20.408-43.875-33.732-8.607-4.348-26.731-11.291-35.338-14.517-15.255-5.4-30.44-15.989-29.040-19.776l-5.108 28.472z" />
<glyph unicode="&#xe94e;" horiz-adv-x="4017" d="M1122.728 583.090c0 0-2.519-2.735-4.269-3.086-1.819-0.421-4.129 1.683-4.129 1.683s-1.679-1.823-3.639-2.314c-1.959-0.491-4.758 2.384-4.758 2.384s-1.889-2.875-3.639-3.506c-1.679-0.631-3.849 0.842-3.849 0.842s-0.7-1.332-2.169-2.174c-0.56-0.281-1.609 0.21-1.609 0.21l-2.029 1.473-2.239 2.384-2.099 0.771c0 0-1.050 3.226-1.050 3.857-0.14 0.561-0.42 1.893-0.42 1.893-0.35 2.384 3.009 5.049 7.837 6.171 2.869 0.701 5.178 0.631 6.998 0 1.959 1.753 6.088 2.945 10.776 2.945 4.409 0 8.257-0.912 10.287-2.455 2.099 1.543 5.878 2.455 10.217 2.455 4.828 0 8.887-1.192 10.846-2.945 1.749 0.631 4.059 0.701 6.928 0 4.828-1.122 8.327-3.787 7.767-6.171 0 0-0.21-1.332-0.21-1.893-0.14-0.631-1.12-3.857-1.12-3.857l-2.099-0.771-2.239-2.384-2.099-1.473c0 0-0.98-0.491-1.539-0.21-1.47 0.842-2.239 2.174-2.239 2.174s-2.029-1.473-3.849-0.842c-1.679 0.631-3.639 3.506-3.639 3.506s-2.729-2.875-4.618-2.384c-2.029 0.491-3.779 2.314-3.779 2.314s-2.169-2.104-3.989-1.683c-1.889 0.351-4.339 3.086-4.339 3.086z" />
<glyph unicode="&#xe94f;" horiz-adv-x="4017" d="M1098.74 569.597c-0.63 1.964-1.889 3.857-1.889 3.857 6.578 1.893 15.675 3.296 25.821 3.296 10.217 0 19.453-1.403 26.101-3.296 0 0-0.84-1.403-1.889-3.296-0.56-1.052-1.19-2.875-1.19-2.875-5.948 1.964-13.575 2.945-23.022 2.945s-18.544-1.262-23.092-3.086c0.070 0-0.49 1.192-0.84 2.455z" />
<glyph unicode="&#xe950;" horiz-adv-x="4017" d="M1122.658 560.901c8.187 0 17.284 1.332 20.643 2.244 2.239 0.631 3.499 1.683 3.219 2.945 0 0.491-0.49 0.982-1.19 1.332-4.828 1.613-13.715 2.805-22.672 2.805-8.887 0-17.704-1.192-22.602-2.805-0.7-0.351-1.19-0.842-1.33-1.332-0.28-1.262 1.12-2.314 3.359-2.945 3.289-0.912 12.456-2.244 20.573-2.244z" />
<glyph unicode="&#xe951;" horiz-adv-x="4017" d="M1149.109 577.269l-2.029 1.823c0 0-1.959-1.192-4.269-0.842-2.379 0.421-3.149 3.436-3.149 3.436s-2.729-2.384-4.898-2.244c-2.169 0.281-3.709 2.244-3.709 2.244s-2.309-1.753-4.339-1.683c-2.169 0.21-4.129 2.945-4.129 2.945s-2.099-2.805-4.199-2.945c-2.169-0.21-3.849 1.753-3.849 1.753s-0.98-1.964-3.639-2.455c-2.659-0.491-4.968 2.244-4.968 2.244s-1.539-2.735-3.289-3.296c-1.819-0.701-4.269 0.982-4.269 0.982s-0.35-0.982-0.63-1.543c-0.28-0.491-1.12-0.631-1.12-0.631l0.63-1.683c6.578 1.893 15.395 3.296 25.401 3.296 10.217 0 19.174-1.403 25.821-3.296l0.63 1.893z" />
<glyph unicode="&#xe952;" horiz-adv-x="4017" d="M1122.728 586.239l0.98-0.070c-0.14-0.421-0.14-0.842-0.14-1.332 0-2.034 1.609-3.717 3.709-3.717 1.749 0 3.079 1.122 3.569 2.595 0.070 0 0.35 1.262 0.49 1.262 0.28 0 0.28-1.403 0.28-1.262 0.21-1.823 1.819-3.226 3.779-3.226s3.639 1.613 3.639 3.717c0 0.21-0.070 0.421-0.070 0.561l1.26 1.122 0.63-1.543c-0.28-0.561-0.35-1.052-0.35-1.753 0-1.893 1.539-3.436 3.569-3.436 1.19 0 2.309 0.561 3.079 1.543l0.56 1.192v-1.403c0-1.192 0.49-2.384 1.749-2.525 0 0 1.26-0.070 3.149 1.332 1.679 1.543 2.659 2.595 2.659 2.595l0.14-1.403c0 0-1.749-3.016-3.359-3.857-0.84-0.631-2.029-1.052-3.149-0.771-1.19 0.14-1.889 0.912-2.309 2.034-0.77-0.561-1.679-0.842-2.729-0.842-2.029 0-3.989 1.332-4.758 3.016-0.91-1.052-2.379-1.683-3.919-1.683-1.749 0-3.219 0.771-4.199 1.964-0.98-0.912-2.239-1.403-3.779-1.403-1.819 0-3.499 0.912-4.478 2.384-0.91-1.473-2.589-2.384-4.478-2.384-1.4 0-2.729 0.491-3.709 1.403-0.98-1.192-2.449-1.964-4.199-1.964-1.609 0-3.009 0.631-3.919 1.683-0.77-1.683-2.659-3.016-4.898-3.016-0.91 0-1.819 0.281-2.589 0.842-0.49-1.122-1.19-1.893-2.309-2.034-1.12-0.281-2.309 0.14-3.219 0.771-1.539 0.842-3.429 3.857-3.429 3.857l0.21 1.403c0 0 1.050-1.052 2.729-2.595 1.889-1.403 3.079-1.332 3.079-1.332 1.26 0.14 1.749 1.332 1.749 2.525v1.403l0.7-1.192c0.63-0.982 1.819-1.543 3.009-1.543 2.029 0 3.569 1.543 3.569 3.436 0 0.701-0.14 1.192-0.35 1.753l0.63 1.543 1.26-1.122v-0.561c0-2.104 1.539-3.717 3.639-3.717 1.889 0 3.499 1.403 3.709 3.226 0-0.14 0 1.262 0.21 1.262s0.49-1.262 0.56-1.262c0.42-1.473 1.819-2.595 3.569-2.595 2.029 0 3.779 1.683 3.779 3.717 0 0.491-0.070 0.912-0.21 1.332l0.91 0.070z" />
<glyph unicode="&#xe953;" horiz-adv-x="4017" d="M1122.658 576.652c-10.147 0-19.243-1.332-25.891-3.226-0.35-0.14-0.91 0.14-0.98 0.631-0.28 0.351 0.070 1.052 0.49 1.122 6.648 2.104 16.095 3.296 26.381 3.366 10.496-0.070 19.803-1.262 26.451-3.366 0.49-0.070 0.84-0.771 0.7-1.122-0.14-0.491-0.7-0.771-1.19-0.631-6.578 1.893-15.745 3.226-25.961 3.226z" />
<glyph unicode="&#xe954;" horiz-adv-x="4017" d="M1122.798 572.269h-3.289c-0.63 0-1.050 0.561-1.050 1.262 0 0.351 0.42 0.912 0.98 0.912h6.718c0.63 0 1.050-0.561 1.050-0.912 0-0.701-0.42-1.262-1.050-1.262h-3.359z" />
<glyph unicode="&#xe955;" horiz-adv-x="4017" d="M1106.465 571.175l-2.379-0.351c-0.63-0.14-1.19 0.21-1.26 0.842-0.14 0.631 0.35 1.122 0.91 1.192l2.379 0.421 2.379 0.351c0.63 0.14 1.19-0.351 1.26-0.912 0.070-0.491-0.35-1.192-0.98-1.262l-2.309-0.281z" />
<glyph unicode="&#xe956;" horiz-adv-x="4017" d="M1138.99 571.175l2.309-0.351c0.63-0.14 1.26 0.21 1.33 0.842 0.14 0.631-0.28 1.122-0.91 1.192l-2.379 0.421-2.449 0.351c-0.49 0.14-1.12-0.351-1.26-0.912-0.070-0.491 0.42-1.192 1.050-1.262l2.309-0.281z" />
<glyph unicode="&#xe957;" horiz-adv-x="4017" d="M1122.658 594.598l-2.799-1.823 2.099-4.909 0.7-0.491 0.77 0.491 2.169 4.909z" />
<glyph unicode="&#xe958;" horiz-adv-x="4017" d="M1116.374 587.27l1.33-2.104 4.478 1.473 0.49 0.771-0.49 0.701-4.478 1.262z" />
<glyph unicode="&#xe959;" horiz-adv-x="4017" d="M1129.081 587.27l-1.33-2.104-4.548 1.473-0.49 0.771 0.49 0.701 4.548 1.262z" />
<glyph unicode="&#xe95a;" horiz-adv-x="4017" d="M1103.869 592.403l-2.309-2.244 2.939-3.997 0.84-0.421 0.42 0.771 1.050 4.839z" />
<glyph unicode="&#xe95b;" horiz-adv-x="4017" d="M1099.083 584.458l1.679-1.613 4.129 2.174 0.35 0.842-0.56 0.491-4.758 0.421z" />
<glyph unicode="&#xe95c;" horiz-adv-x="4017" d="M1111.517 586.996l-0.98-2.174-4.548 0.491-0.7 0.421 0.35 0.912 4.269 2.244z" />
<glyph unicode="&#xe95d;" horiz-adv-x="4017" d="M1094.506 583.777l-0.35-2.314-4.758-0.491-0.63 0.351 0.070 0.982 3.639 2.945z" />
<glyph unicode="&#xe95e;" horiz-adv-x="4017" d="M1141.586 592.403l2.309-2.244-2.939-3.997-0.77-0.421-0.49 0.771-1.050 4.839z" />
<glyph unicode="&#xe95f;" horiz-adv-x="4017" d="M1146.373 584.458l-1.679-1.613-4.129 2.174-0.35 0.842 0.63 0.491 4.688 0.421z" />
<glyph unicode="&#xe960;" horiz-adv-x="4017" d="M1133.938 586.996l0.91-2.174 4.688 0.491 0.7 0.421-0.42 0.912-4.199 2.244z" />
<glyph unicode="&#xe961;" horiz-adv-x="4017" d="M1150.27 583.777l0.42-2.314 4.688-0.491 0.7 0.351-0.14 0.982-3.569 2.945z" />
<glyph unicode="&#xe962;" horiz-adv-x="4017" d="M1124.918 606.92v-2.034h-4.758v2.034h1.47v4.558h-2.029v2.174h2.029v1.893h2.099v-1.893h2.169v-2.174h-2.169v-4.558z" />
<glyph unicode="&#xe963;" horiz-adv-x="4017" d="M1127.101 606.92v-2.034h-8.607v2.034h3.219v4.558h-2.169v2.174h2.169v1.893h1.959v-1.893h2.099v-2.174h-2.099v-4.558z" />
<glyph unicode="&#xe964;" horiz-adv-x="4017" d="M1088.152 581.105c0-0.14-1.33 1.613-2.239 2.455-0.63 0.631-2.239 1.262-2.239 1.262 0 0.21 0.84 0.912 1.889 0.912 0.7 0 1.19-0.21 1.539-0.701l0.14 0.701c0 0 0.84-0.21 1.19-1.122 0.42-1.052 0.14-2.455 0.14-2.455s-0.14-0.842-0.42-1.052z" />
<glyph unicode="&#xe965;" horiz-adv-x="4017" d="M1156.694 581.105c0-0.14 1.33 1.613 2.239 2.455 0.63 0.631 2.239 1.262 2.239 1.262 0 0.21-0.91 0.912-1.959 0.912-0.63 0-1.19-0.21-1.4-0.701l-0.14 0.701c0 0-0.98-0.21-1.26-1.122-0.42-1.052-0.14-2.455-0.14-2.455s0.14-0.842 0.42-1.052z" />
<glyph unicode="&#xe966;" horiz-adv-x="4017" d="M1152.524 527.274c-0.49 0.21-0.84 0.21-1.47 0.21h-56.331c-0.49 0-1.050-0.14-1.539-0.21 1.959 0.631 3.289 2.455 3.289 4.558 0 2.244-1.4 4.067-3.429 4.769 0.49-0.14 1.12-0.281 1.609-0.281h56.401c0.63 0 1.12 0 1.679 0.21l-0.35-0.070c-2.029-0.701-3.149-2.525-3.149-4.629 0-1.893 1.26-3.927 3.289-4.558z" />
<glyph unicode="&#xe967;" horiz-adv-x="4017" d="M1094.709 527.478h56.401c1.889 0 3.429-1.262 3.429-2.735s-1.539-2.665-3.429-2.665h-56.401c-1.889 0-3.359 1.192-3.359 2.665s1.469 2.735 3.359 2.735z" />
<glyph unicode="&#xe968;" horiz-adv-x="4017" d="M1094.639 540.97h56.541c1.889 0 3.359-1.052 3.359-2.314s-1.47-2.244-3.359-2.244h-56.541c-1.819 0-3.359 0.982-3.359 2.244s1.539 2.314 3.359 2.314z" />
<glyph unicode="&#xe969;" horiz-adv-x="4017" d="M1070.245 194.777c5.248 0 9.797 1.122 13.156 3.086 3.429 1.753 8.047 2.875 13.086 2.875 5.178 0 9.867-1.122 13.226-2.875 3.429-1.964 8.187-3.086 13.226-3.086 5.318 0 9.937 1.473 13.295 3.086 3.429 1.753 7.977 2.875 12.876 2.875 5.038 0 9.587-0.982 12.946-2.875 3.429-1.823 8.187-3.086 13.365-3.086v-8.556c-5.178 0-9.937 1.262-13.365 3.156-3.359 1.823-7.907 2.805-12.946 2.805-4.898 0-9.447-0.982-12.876-2.665-3.359-1.964-7.977-3.296-13.295-3.296-5.038 0-9.797 1.262-13.226 3.156-3.359 1.823-8.047 2.805-13.226 2.805-5.038 0-9.657-0.982-13.086-2.805-3.359-1.893-7.907-3.156-13.156-3.156v8.556z" />
<glyph unicode="&#xe96a;" horiz-adv-x="4017" d="M1070.245 186.214c5.248 0 9.797 1.332 13.156 3.156 3.429 1.823 8.047 2.805 13.086 2.805 5.178 0 9.867-0.982 13.226-2.805 3.429-1.823 8.187-3.156 13.226-3.156 5.318 0 9.937 1.473 13.295 3.296 3.429 1.683 7.977 2.665 12.876 2.665 5.038 0 9.587-0.982 12.946-2.805 3.429-1.823 8.187-3.156 13.365-3.156v-8.345c-5.178 0-9.937 1.192-13.365 3.086-3.359 1.823-7.907 2.805-12.946 2.805-4.898 0-9.447-1.122-12.876-2.805-3.359-1.893-7.977-3.086-13.295-3.086-5.038 0-9.797 1.052-13.226 2.945-3.359 1.823-8.047 2.945-13.226 2.945-5.038 0-9.657-1.122-13.086-2.945-3.359-1.893-7.907-2.945-13.156-2.945v8.345z" />
<glyph unicode="&#xe96b;" horiz-adv-x="4017" d="M1070.245 177.862c5.248 0 9.797 1.122 13.156 2.945 3.429 1.823 8.047 2.945 13.086 2.945 5.178 0 9.867-1.122 13.226-2.945 3.429-1.823 8.187-2.945 13.226-2.945 5.318 0 9.937 1.262 13.295 3.086 3.429 1.683 7.977 2.805 12.876 2.805 5.038 0 9.587-0.982 12.946-2.805 3.429-1.823 8.187-3.086 13.365-3.086v-8.556c-5.178 0-9.937 1.262-13.365 3.086-3.359 1.823-7.907 2.875-12.946 2.875-4.898 0-9.447-1.052-12.876-2.735-3.359-1.964-7.977-3.226-13.295-3.226-5.038 0-9.797 1.262-13.226 3.086-3.359 1.683-8.047 2.875-13.226 2.875-5.038 0-9.657-1.192-13.086-2.875-3.359-1.823-7.907-3.086-13.156-3.086v8.556z" />
<glyph unicode="&#xe96c;" horiz-adv-x="4017" d="M1070.315 160.877c5.178 0 9.727 1.122 13.086 2.945 3.499 1.893 8.047 3.016 13.086 3.016 5.178 0 9.867-1.122 13.226-3.016 3.429-1.823 8.187-2.945 13.226-2.945 5.318 0 10.007 1.262 13.295 3.086 3.429 1.753 7.977 2.875 12.876 2.875 5.038 0 9.587-1.122 13.016-2.875 3.359-1.964 8.257-3.086 13.435-3.086v8.416c-5.178 0-10.077 1.262-13.435 3.086-3.429 1.823-7.977 2.875-13.016 2.875-4.898 0-9.447-1.052-12.876-2.735-3.289-1.964-7.977-3.226-13.295-3.226-5.038 0-9.797 1.262-13.226 3.086-3.359 1.683-8.047 2.875-13.226 2.875-5.038 0-9.587-1.192-13.086-2.875-3.359-1.823-8.047-3.086-13.156-3.086l0.070-8.416z" />
<glyph unicode="&#xe96d;" horiz-adv-x="4017" d="M1070.315 152.384c5.178 0 9.727 1.192 13.086 3.086 3.499 1.683 8.047 2.805 13.086 2.805 5.178 0 9.867-1.122 13.226-2.945 3.429-1.753 8.187-2.945 13.226-2.945 5.318 0 10.007 1.262 13.295 3.156 3.429 1.613 7.977 2.735 12.876 2.735 5.038 0 9.587-0.982 13.016-2.805 3.359-1.823 8.257-3.086 13.435-3.086v8.345c-5.178 0-10.077 1.262-13.435 3.226-3.429 1.753-7.977 2.875-13.016 2.875-4.898 0-9.447-1.122-12.876-2.875-3.289-1.823-7.977-3.086-13.295-3.086-5.038 0-9.797 1.122-13.226 2.945-3.359 1.893-8.047 3.016-13.226 3.016-5.038 0-9.587-1.122-13.086-3.016-3.359-1.823-7.907-2.945-13.156-2.945l0.070-8.486z" />
<glyph unicode="&#xe96e;" horiz-adv-x="4017" d="M1152.524 229.702c-0.21-0.771-0.49-1.403-0.49-2.244 0-5.119 4.409-9.257 9.587-9.257h-77.534c5.248 0 9.447 4.138 9.447 9.257 0 0.842-0.14 1.473-0.28 2.244 0.42-0.281 0.98-0.281 1.47-0.281h56.331c0.49 0 1.050 0.14 1.47 0.281z" />
<glyph unicode="&#xe96f;" horiz-adv-x="4017" d="M1094.709 234.842h56.401c1.889 0 3.429-1.262 3.429-2.665 0-1.543-1.539-2.735-3.429-2.735h-56.401c-1.889 0-3.359 1.192-3.359 2.735 0 1.403 1.469 2.665 3.359 2.665z" />
<glyph unicode="&#xe970;" horiz-adv-x="4017" d="M1167.491 307.643c7.627-4.558 12.876-9.327 12.036-11.641-0.42-2.104-2.869-3.857-6.368-6.171-5.528-3.997-8.747-11.010-6.158-14.377-4.548 3.857-7.348 9.538-7.348 15.849 0 6.522 2.939 12.623 7.837 16.34z" />
<glyph unicode="&#xe971;" horiz-adv-x="4017" d="M1039.428 413.861c12.036 5.19 32.399 8.977 55.701 9.678 8.047 0 16.934-0.701 26.241-2.384 32.959-5.821 57.87-19.356 55.911-30.506 0-0.281-0.14-0.701-0.14-0.982 0 0 12.316 28.963 12.456 30.015 2.239 12.483-25.541 27.631-61.929 33.943-11.406 2.034-22.672 2.665-32.329 2.595-23.232 0-43.595-2.945-55.771-7.784l-0.14-34.574z" />
<glyph unicode="&#xe972;" horiz-adv-x="4017" d="M1184.573 324.488c1.47 4.558-13.295 13.675-34.358 21.74-9.587 3.436-17.494 7.293-27.361 11.852-29.11 13.395-50.593 28.753-47.934 34.433l0.28 0.631c-1.539-1.403-3.989-29.104-3.989-29.104-2.729-5.19 17.004-20.408 43.805-33.732 8.677-4.348 26.871-11.291 35.338-14.517 15.255-5.4 30.44-15.989 29.18-19.776l5.038 28.472z" />
<glyph unicode="&#xe973;" horiz-adv-x="4017" d="M868.861 715.817c22.392 0 42.266-3.436 55.281-8.906 7.487-3.436 17.494-5.891 28.41-7.504 8.327-1.122 16.304-1.473 23.092-0.912 9.237 0.281 22.602-2.595 35.898-8.696 11.056-5.049 20.293-11.291 26.311-17.392l-5.318-4.769-1.47-14.096-14.555-17.322-7.138-6.382-17.144-14.306-8.887-0.771-2.589-7.995-111.192 13.675-111.472-13.675-2.729 7.995-8.817 0.771-17.214 14.306-7.208 6.382-14.555 17.322-1.47 14.096-5.318 4.769c6.088 6.101 15.325 12.343 26.311 17.392 13.295 6.101 26.661 8.977 35.898 8.696 6.858-0.561 14.835-0.21 23.092 0.912 11.056 1.613 20.923 4.067 28.48 7.504 12.946 5.47 31.839 8.906 54.302 8.906z" />
<glyph unicode="&#xe974;" horiz-adv-x="4017" d="M870.155 598.294c-41.916 0-79.493-5.47-106.084-14.026 2.309 0.982 2.169 3.857-0.56 11.291-3.359 8.836-8.537 8.416-8.537 8.416 29.25 9.047 70.046 14.727 115.391 14.797 45.345-0.070 86.491-5.751 115.671-14.797 0 0-5.108 0.421-8.397-8.416-2.729-7.434-3.009-10.309-0.77-11.291-26.451 8.556-64.728 14.026-106.714 14.026z" />
<glyph unicode="&#xe975;" horiz-adv-x="4017" d="M870.365 618.702c-45.345 0-86.071-5.68-115.321-14.657-2.029-0.701-4.129 0.14-4.758 2.034-0.63 1.964 0.35 4.208 2.449 4.839 29.39 9.257 71.166 15.288 117.63 15.288s88.52-6.031 117.91-15.288c1.959-0.631 3.009-2.875 2.309-4.839-0.63-1.893-2.729-2.735-4.688-2.034-29.25 8.977-70.186 14.657-115.531 14.657z" />
<glyph unicode="&#xe976;" horiz-adv-x="4017" d="M870.428 562.753c-41.356 0.14-78.513 5.19-104.964 13.465-1.889 0.701-2.939 2.595-2.799 4.488 0 1.753 0.98 3.506 2.799 4.067 26.451 8.416 63.608 13.535 104.964 13.605 41.426-0.070 78.513-5.19 104.964-13.605 1.889-0.561 2.939-2.314 2.939-4.067 0.14-1.893-0.98-3.787-2.939-4.488-26.451-8.275-63.538-13.325-104.964-13.465z" />
<glyph unicode="&#xe977;" horiz-adv-x="4017" d="M870.428 605.076h-11.126c-1.959 0-3.709 1.683-3.709 3.717 0 1.964 1.679 3.577 3.709 3.577h22.462c1.959 0 3.709-1.613 3.709-3.577 0-2.034-1.749-3.717-3.849-3.717h-11.196z" />
<glyph unicode="&#xe978;" horiz-adv-x="4017" d="M814.671 601.857l-7.907-0.912c-2.099-0.281-3.989 1.192-4.269 3.156-0.21 2.104 1.26 3.927 3.219 4.138l8.047 0.912 8.187 0.982c2.099 0.281 3.849-1.052 4.129-3.226 0.28-1.964-1.19-3.717-3.219-3.927l-8.187-1.122z" />
<glyph unicode="&#xe979;" horiz-adv-x="4017" d="M926.262 601.857l7.837-0.912c2.169-0.281 3.989 1.192 4.339 3.156 0.28 2.104-1.33 3.927-3.219 4.138l-8.047 0.912-8.187 0.982c-2.099 0.281-3.849-1.052-4.129-3.226-0.28-1.964 1.19-3.717 3.289-3.927l8.117-1.122z" />
<glyph unicode="&#xe97a;" horiz-adv-x="4017" d="M786.652 685.198l4.688-3.927 7.138 11.992c-7.627 4.979-13.016 13.325-13.016 22.932 0 1.052 0.14 2.104 0.28 3.226 0.7 15.218 18.544 27.841 41.216 27.841 11.756 0 22.392-3.366 29.81-8.696 0.28 2.384 0.49 4.418 0.77 6.522-8.187 5.049-18.894 7.995-30.58 7.995-26.031 0-46.394-15.358-47.444-33.662-0.14-1.122-0.14-2.174-0.14-3.226 0-9.748 4.339-18.514 11.056-24.615l-3.779-6.382z" />
<glyph unicode="&#xe97b;" horiz-adv-x="4017" d="M786.995 684.995c-8.887 7.083-14.485 16.34-14.485 26.789 0 11.852 7.487 22.441 18.894 29.595-6.998-5.821-11.266-13.535-11.896-21.95-0.070-0.982-0.070-2.104-0.070-3.226 0-9.748 4.199-18.514 10.986-24.615l-3.429-6.592z" />
<glyph unicode="&#xe97c;" horiz-adv-x="4017" d="M708.545 672.94c-4.968 5.821-7.977 13.254-7.977 21.6 0 4.979 1.050 9.608 3.009 13.886 7.208 15.639 29.74 26.719 56.611 26.719 7.278 0 14.205-0.912 20.713-2.314-1.33-1.753-2.589-3.506-3.639-5.26-5.388 0.982-11.126 1.683-17.074 1.683-24.562 0-45.065-9.958-51.083-23.423-1.539-3.436-2.379-7.364-2.379-11.291 0-8.275 3.569-15.428 9.377-20.478l-8.957-15.288-4.758 3.997 6.158 10.169z" />
<glyph unicode="&#xe97d;" horiz-adv-x="4017" d="M717.628 723.762c-6.508-4.208-11.266-9.467-13.995-15.358-2.029-4.208-3.079-8.906-3.079-13.886 0-8.135 2.939-15.709 7.977-21.53l-5.388-9.117c-5.178 6.943-8.117 14.938-8.117 23.493 0 14.867 9.027 27.841 22.602 36.397z" />
<glyph unicode="&#xe97e;" horiz-adv-x="4017" d="M870.092 756.155c5.948 0 11.056-4.067 12.246-9.538 0.84-4.909 1.26-10.449 1.4-16.34v-1.823c0-0.701 0.14-1.473 0.14-2.244 0.28-12.343 2.029-23.283 4.339-29.945l-18.124-18.023-18.334 18.023c2.449 6.662 4.129 17.602 4.339 29.945 0 0.771 0.14 1.543 0.14 2.244 0 0.631-0.070 1.262-0.070 1.823 0.21 5.891 0.7 11.431 1.47 16.34 1.19 5.47 6.508 9.538 12.456 9.538z" />
<glyph unicode="&#xe97f;" horiz-adv-x="4017" d="M870.092 750.264c3.079 0 5.668-1.964 6.368-4.839 0.77-4.629 1.26-9.888 1.26-15.499 0.070-0.561 0-1.122 0-1.683 0-0.631 0.070-1.332 0.070-2.034 0.28-11.782 1.889-22.021 4.129-28.402l-11.826-11.782-12.106 11.782c2.379 6.382 3.919 16.621 4.199 28.402 0 0.701 0.14 1.403 0.14 2.034v1.683c0 5.61 0.49 10.87 1.26 15.499 0.7 2.875 3.359 4.839 6.508 4.839z" />
<glyph unicode="&#xe980;" horiz-adv-x="4017" d="M953.392 685.198l-4.618-3.927-7.068 11.992c7.557 4.979 12.876 13.325 12.876 22.932 0 1.052-0.070 2.104-0.21 3.226-0.84 15.218-18.614 27.841-41.216 27.841-11.756 0-22.462-3.366-29.88-8.696-0.21 2.384-0.35 4.418-0.77 6.522 8.187 5.049 18.964 7.995 30.65 7.995 26.031 0 46.394-15.358 47.444-33.662 0-1.122 0.070-2.174 0.070-3.226 0-9.748-4.269-18.514-11.056-24.615l3.779-6.382z" />
<glyph unicode="&#xe981;" horiz-adv-x="4017" d="M953.119 684.995c8.957 7.083 14.345 16.34 14.345 26.789 0 11.852-7.487 22.441-18.824 29.595 7.068-5.821 11.196-13.535 11.826-21.95 0.14-0.982 0.21-2.104 0.21-3.226 0-9.748-4.269-18.514-11.126-24.615l3.569-6.592z" />
<glyph unicode="&#xe982;" horiz-adv-x="4017" d="M1031.5 672.94c4.968 5.821 8.047 13.254 8.047 21.6 0 4.979-1.050 9.608-3.149 13.886-7.138 15.639-29.74 26.719-56.541 26.719-7.348 0-14.275-0.912-20.783-2.314 1.4-1.753 2.589-3.506 3.779-5.26 5.318 0.982 10.986 1.683 17.004 1.683 24.492 0 44.995-9.958 51.083-23.423 1.609-3.436 2.309-7.364 2.309-11.291 0-8.275-3.499-15.428-9.237-20.478l8.817-15.288 4.828 3.997-6.158 10.169z" />
<glyph unicode="&#xe983;" horiz-adv-x="4017" d="M1022.41 723.762c6.438-4.208 11.336-9.467 13.995-15.358 1.959-4.208 3.149-8.906 3.149-13.886 0-8.135-3.079-15.709-8.047-21.53l5.388-9.117c5.178 6.943 8.117 14.938 8.117 23.493 0 14.867-9.027 27.841-22.602 36.397z" />
</font>
</defs>
</svg>
